<?xml version="1.0" encoding="utf-8"?>
<!-- Generator: Adobe Illustrator 19.2.1, SVG Export Plug-In . SVG Version: 6.00 Build 0)  -->
<svg version="1.1" xmlns="http://www.w3.org/2000/svg" xmlns:xlink="http://www.w3.org/1999/xlink" x="0px" y="0px"
	 viewBox="0 0 207.3 177.9" style="enable-background:new 0 0 207.3 177.9;" xml:space="preserve">
<style type="text/css">
	.st0{opacity:0.6;fill:#FFFFFF;}
	.st1{fill:#22252C;}
	.st2{clip-path:url(#SVGID_2_);fill:#22252C;}
</style>
<g id="Слой_3">
</g>
<g id="Слой_2">
	<circle class="st0" cx="104.6" cy="93.6" r="78.7"/>
	<path id="Facebook_2_" class="st1" d="M152.6,136.3c0,2.9-2.4,5.3-5.3,5.3h-24.5v-37.2h12.5l1.9-14.5h-14.3v-9.3
		c0-4.2,1.2-7.1,7.2-7.1l7.7,0v-13c-1.3-0.2-5.9-0.6-11.2-0.6c-11.1,0-18.6,6.8-18.6,19.2V90H95.4v14.5h12.5v37.2h-46
		c-2.9,0-5.3-2.4-5.3-5.3V50.9c0-2.9,2.4-5.3,5.3-5.3h85.4c2.9,0,5.3,2.4,5.3,5.3V136.3z"/>
</g>
</svg>
