<svg viewBox="0 0 345.6 168.4" fill="#F6F7F7"><path class="st0" d="M330.6 67.5c-3-6.2-11-6.9-11-6.9-.2-.3-.5-.5-.7-.8-.9-1-1.9-1.9-2.8-2.7-4.5-3.8-8.1-4.2-8.1-4.2-8.9-2.4-20.4-.7-20.4-.7l-2.2-2.8-.9.2.7 2.8s-2.4.3-7.2 1-101.6 20.7-101.6 20.7S101 51.7 92.5 49s-13.4-6.5-15-8.1c-1.5-1.6-8.3-11-10.9-13.3-2.6-2.4-4.3-.9-4.3-.9s4.6 9.8 7.7 16.9 13.3 10.6 19.3 13.1c2.2 1 10.8 4.5 20.7 8.5-1 .5-2.5 1.3-3 1.6-.9.5-2.5 1.8-2.5 1.8v1.1s4.2 1.5 12.9-1.4c7.1 2.9 14.1 5.8 19.6 8-1.5.7-3.7 1.8-5.4 3.5l-.1 1s2.7.8 12.9-1.5c1.6.6 2.4 1 2.4 1l-30.7 6.4c-.5-.6-1.1-1.2-1.2-1.2-.3-.2-.8.1-.8.1l.3 1.5-8.2 1.7C99.2 88.5 95 83 95 83L67.3 50.5c-2.4-3.7-7.7-2-7.7-2l-8.4 1.8L61.3 98s-32-7.6-35-7.6-8.3 1.9-8.3 1.9l31.6 12.9c-2.9 1.4-5.3 3.6-5.3 3.6-.6 1.1-.5 2.3-.2 3.1.3.7.9 1.3 1.7 1.4l32.4 4.4s4.3 2.8 5.2 2.7S90 119 90 119c41.7 5.2 78.3-4.9 78.3-4.9 4.3.8 13.7 1.3 17.8.9 1.9-.2 10-1.5 19.1-3.2-1 .5-1.9 1-2.1 1.3 0 0-.1.7.1 1 .1.3 4.7.5 14.8-2.4l3.9 2.5s-5.6 2.5-6.2 3.3l.1 1.1s1.7.1 2.7.1c1-.1 8.5-1.2 8.5-1.2l4 2.2s-4.6 2.3-5.1 2.7l-.5.4.1 1.1s5.1.3 11.3-1.6c0 0 1.7 2.5 6.3 2.7 0 0 .8 1.2 1.7 1.4.9.3 12.1.7 26.6-3.6 0 0 7.7-1.2 5.3-13.1s-7.1-10.7-18.7-8.4c0 0-1.2-.6-3.3-.1s-10.3 2.2-10.3 2.2l-.6-1.6c4.5-2.1 7.4-3.9 7.4-3.9 9.5-1.6 52.3-11.1 52.3-11.1 16.5-5.2 30.1-13 27.1-19.3z"/></svg>