<svg id="Слой_1" xmlns="http://www.w3.org/2000/svg" xmlns:xlink="http://www.w3.org/1999/xlink" viewBox="0 0 207.3 177.9"><style/><g id="Слой_2"><circle cx="105.6" cy="92.4" r="78.7" opacity=".6" fill="#fff"/><defs><path id="SVGID_3_" d="M41.6 42.6h116v101.5h-116z"/></defs><clipPath id="SVGID_2_"><use xlink:href="#SVGID_3_" overflow="visible"/></clipPath><path d="M43.7 91l26.8 10 10.4 33.3c.7 2.1 3.3 2.9 5 1.5l14.9-12.2c1.6-1.3 3.8-1.3 5.4-.2L133 143c1.9 1.3 4.5.3 4.9-1.9l19.7-94.8c.5-2.4-1.9-4.5-4.2-3.6L43.7 85.1c-2.8 1.1-2.7 4.9 0 5.9zm35.4 4.7l52.3-32.2c.9-.6 1.9.7 1.1 1.4L89.3 105c-1.5 1.4-2.5 3.3-2.8 5.4L85 121.3c-.2 1.5-2.2 1.6-2.6.2l-5.7-19.9c-.5-2.2.4-4.7 2.4-5.9z" clip-path="url(#SVGID_2_)" fill="#22252c"/></g></svg>