<svg enable-background="new 0 0 207.3 177.9" version="1.1" viewBox="0 0 207.3 177.9" xml:space="preserve" xmlns="http://www.w3.org/2000/svg">
	<path d="m155.2 51.2c-4.2 2.5-8.8 4.4-13.7 5.4-3.9-4.3-9.5-7-15.7-7-11.9 0-21.5 9.9-21.5 22.1 0 1.7 0.2 3.4 0.6 5-18-0.9-33.8-9.7-44.5-23-1.9 3.3-2.9 7.1-2.9 11.1 0 7.7 3.8 14.4 9.6 18.4-3.5-0.1-6.9-1.1-9.8-2.8v0.3c0 10.7 7.4 19.6 17.3 21.7-1.8 0.5-3.7 0.8-5.7 0.8-1.4 0-2.7-0.1-4.1-0.4 2.7 8.8 10.7 15.2 20.1 15.3-7.4 5.9-16.7 9.5-26.8 9.5-1.7 0-3.5-0.1-5.1-0.3 9.5 6.3 20.9 9.9 33 9.9 39.6 0 61.3-33.7 61.3-62.8 0-1 0-1.9-0.1-2.9 4.2-3.1 7.9-7 10.7-11.4-3.9 1.8-8 2.9-12.4 3.5 4.7-2.9 8.1-7.2 9.7-12.4z"/>
</svg>