<svg width="24px" height="24px" enable-background="new 0 0 437.6 437.6"  viewBox="0 0 437.6 437.6" xml:space="preserve" fill="#fff">
			<path d="m194 142.8c0.8 1.6 1.6 3.2 2.4 4.4s2 2.4 2.8 3.6c1.2 1.2 2.4 2.4 4 3.6 1.2 0.8 2.8 2 4.8 2.4 1.6 0.8 3.2 1.2 5.2 1.6s3.6 0.4 5.2 0.4 3.6 0 5.2-0.4 3.2-0.8 4.4-1.6h0.4c1.6-0.8 3.2-1.6 4.8-2.8 1.2-0.8 2.4-2 3.6-3.2l0.4-0.4c1.2-1.2 2-2.4 2.8-3.6s1.6-2.4 2-4c0-0.4 0-0.4 0.4-0.8 0.8-1.6 1.2-3.6 1.6-5.2s0.4-3.6 0.4-5.2 0-3.6-0.4-5.2-0.8-3.2-1.6-5.2c-1.2-2.8-2.8-5.2-4.8-7.2l-0.8-0.8c-1.2-1.2-2.4-2-4-3.2-1.6-0.8-2.8-1.6-4.4-2.4s-3.2-1.2-4.8-1.6c-2-0.4-3.6-0.4-5.2-0.4s-3.6 0-5.2 0.4-3.2 0.8-4.8 1.6h-0.4c-1.6 0.8-3.2 1.6-4.4 2.4-1.6 1.2-2.8 2-4 3.2s-2.4 2.4-3.2 3.6-1.6 2.8-2.4 4.4-1.2 3.2-1.6 4.8c-0.4 2-0.4 3.6-0.4 5.2s0 3.6 0.4 5.2c0.4 3.2 1.2 4.8 1.6 6.4z"/>
			<path d="m249.6 289.2h-9.2v-98c0-5.6-4.4-10.4-10.4-10.4h-42c-5.6 0-10.4 4.4-10.4 10.4v21.6c0 5.6 4.4 10.4 10.4 10.4h8.4v66.4h-8.4c-5.6 0-10.4 4.4-10.4 10.4v21.6c0 5.6 4.4 10.4 10.4 10.4h61.6c5.6 0 10.4-4.4 10.4-10.4v-21.6c0-6-4.8-10.8-10.4-10.8z"/>
			<path d="m218.8 0c-120.8 0-218.8 98-218.8 218.8s98 218.8 218.8 218.8 218.8-98 218.8-218.8-98-218.8-218.8-218.8zm0 408.8c-104.8 0-190-85.2-190-190s85.2-190 190-190 190 85.2 190 190-85.2 190-190 190z"/>
</svg>
