<svg enable-background="new 0 0 207.3 177.9" version="1.1" viewBox="0 0 207.3 177.9" xml:space="preserve" xmlns="http://www.w3.org/2000/svg" xmlns:xlink="http://www.w3.org/1999/xlink"  fill='#022027'>
				<path class="st3" d="m43.7 91l26.8 10 10.4 33.3c0.7 2.1 3.3 2.9 5 1.5l14.9-12.2c1.6-1.3 3.8-1.3 5.4-0.2l26.8 19.6c1.9 1.3 4.5 0.3 4.9-1.9l19.7-94.8c0.5-2.4-1.9-4.5-4.2-3.6l-109.7 42.4c-2.8 1.1-2.7 4.9 0 5.9zm35.4 4.7l52.3-32.2c0.9-0.6 1.9 0.7 1.1 1.4l-43.2 40.1c-1.5 1.4-2.5 3.3-2.8 5.4l-1.5 10.9c-0.2 1.5-2.2 1.6-2.6 0.2l-5.7-19.9c-0.5-2.2 0.4-4.7 2.4-5.9z"/>
</svg>
