<?xml version="1.0" encoding="utf-8"?>
<!-- Generator: Adobe Illustrator 19.2.1, SVG Export Plug-In . SVG Version: 6.00 Build 0)  -->
<svg version="1.1" id="Слой_1" xmlns="http://www.w3.org/2000/svg" xmlns:xlink="http://www.w3.org/1999/xlink" x="0px" y="0px"
	 viewBox="0 0 207.3 177.9" style="enable-background:new 0 0 207.3 177.9;" xml:space="preserve">
<style type="text/css">
	.st0{opacity:0.6;fill:#FFFFFF;enable-background:new    ;}
	.st1{fill:none;}
	.st2{fill:#22252C;}
	.st3{clip-path:url(#SVGID_2_);fill:#22252C;}
	.st4{clip-path:url(#SVGID_4_);fill:#22252C;}
</style>
<g id="Слой_2">
	<circle class="st0" cx="105.6" cy="92.4" r="78.7"/>
	<g>
		<g>
			<g>
				<defs>
					<rect id="SVGID_3_" x="41.6" y="42.6" width="116" height="101.5"/>
				</defs>
				<clipPath id="SVGID_2_">
					<use xlink:href="#SVGID_3_"  style="overflow:visible;"/>
				</clipPath>
				<path class="st3" d="M43.7,91l26.8,10l10.4,33.3c0.7,2.1,3.3,2.9,5,1.5l14.9-12.2c1.6-1.3,3.8-1.3,5.4-0.2L133,143
					c1.9,1.3,4.5,0.3,4.9-1.9l19.7-94.8c0.5-2.4-1.9-4.5-4.2-3.6L43.7,85.1C40.9,86.2,41,90,43.7,91L43.7,91z M79.1,95.7l52.3-32.2
					c0.9-0.6,1.9,0.7,1.1,1.4L89.3,105c-1.5,1.4-2.5,3.3-2.8,5.4L85,121.3c-0.2,1.5-2.2,1.6-2.6,0.2l-5.7-19.9
					C76.2,99.4,77.1,96.9,79.1,95.7L79.1,95.7z"/>
			</g>
		</g>
	</g>
</g>
</svg>
