<?xml version="1.0" encoding="utf-8"?>
<!-- Generator: Adobe Illustrator 19.2.1, SVG Export Plug-In . SVG Version: 6.00 Build 0)  -->
<svg version="1.1" xmlns="http://www.w3.org/2000/svg" xmlns:xlink="http://www.w3.org/1999/xlink" x="0px" y="0px"
	 viewBox="0 0 207.3 177.9" style="enable-background:new 0 0 207.3 177.9;" xml:space="preserve">
<style type="text/css">
	.st0{opacity:0.6;fill:#FFFFFF;}
	.st1{fill:#22252C;}
	.st2{clip-path:url(#SVGID_2_);fill:#22252C;}
</style>
<g id="Слой_3">
</g>
<g id="Слой_2">
	<circle class="st0" cx="105.6" cy="93.4" r="78.7"/>
	<path id="Twitter_2_" class="st1" d="M155.2,51.2c-4.2,2.5-8.8,4.4-13.7,5.4c-3.9-4.3-9.5-7-15.7-7c-11.9,0-21.5,9.9-21.5,22.1
		c0,1.7,0.2,3.4,0.6,5C86.9,75.8,71.1,67,60.4,53.7c-1.9,3.3-2.9,7.1-2.9,11.1c0,7.7,3.8,14.4,9.6,18.4c-3.5-0.1-6.9-1.1-9.8-2.8
		v0.3c0,10.7,7.4,19.6,17.3,21.7c-1.8,0.5-3.7,0.8-5.7,0.8c-1.4,0-2.7-0.1-4.1-0.4c2.7,8.8,10.7,15.2,20.1,15.3
		c-7.4,5.9-16.7,9.5-26.8,9.5c-1.7,0-3.5-0.1-5.1-0.3c9.5,6.3,20.9,9.9,33,9.9c39.6,0,61.3-33.7,61.3-62.8c0-1,0-1.9-0.1-2.9
		c4.2-3.1,7.9-7,10.7-11.4c-3.9,1.8-8,2.9-12.4,3.5C150.2,60.7,153.6,56.4,155.2,51.2z"/>
</g>
</svg>
