<?xml version="1.0" encoding="utf-8"?>
<!-- Generator: Adobe Illustrator 19.2.1, SVG Export Plug-In . SVG Version: 6.00 Build 0)  -->
<svg version="1.1" id="BACKGROUND_2" xmlns="http://www.w3.org/2000/svg" xmlns:xlink="http://www.w3.org/1999/xlink" x="0px"
	 y="0px" viewBox="0 0 750 500" style="enable-background:new 0 0 750 500;" xml:space="preserve">
<style type="text/css">
	.st0{clip-path:url(#SVGID_2_);}
	.st1{fill:#666666;}
	.st2{fill:url(#SVGID_3_);}
	.st3{fill:url(#SVGID_4_);}
	.st4{fill:url(#SVGID_5_);}
	.st5{fill:url(#SVGID_6_);}
	.st6{fill:url(#SVGID_7_);}
	.st7{fill:url(#SVGID_8_);}
	.st8{fill:url(#SVGID_9_);}
	.st9{fill:url(#SVGID_10_);}
	.st10{fill:url(#SVGID_11_);}
	.st11{fill:url(#SVGID_12_);}
	.st12{fill:url(#SVGID_13_);}
	.st13{fill:url(#SVGID_14_);}
	.st14{fill:url(#SVGID_15_);}
	.st15{fill:url(#SVGID_16_);}
	.st16{fill:url(#SVGID_17_);}
	.st17{fill:url(#SVGID_18_);}
	.st18{fill:url(#SVGID_19_);}
	.st19{fill:url(#SVGID_20_);}
	.st20{fill:url(#SVGID_21_);}
	.st21{fill:url(#SVGID_22_);}
	.st22{fill:url(#SVGID_23_);}
	.st23{fill:url(#SVGID_24_);}
	.st24{fill:url(#SVGID_25_);}
	.st25{fill:url(#SVGID_26_);}
	.st26{fill:url(#SVGID_27_);}
	.st27{fill:url(#SVGID_28_);}
	.st28{fill:url(#SVGID_29_);}
	.st29{fill:url(#SVGID_30_);}
	.st30{fill:url(#SVGID_31_);}
	.st31{fill:url(#SVGID_32_);}
	.st32{fill:url(#SVGID_33_);}
	.st33{fill:url(#SVGID_34_);}
	.st34{fill:url(#SVGID_35_);}
	.st35{fill:url(#SVGID_36_);}
	.st36{fill:url(#SVGID_37_);}
	.st37{fill:url(#SVGID_38_);}
	.st38{fill:url(#SVGID_39_);}
	.st39{fill:url(#SVGID_40_);}
	.st40{fill:url(#SVGID_41_);}
	.st41{fill:url(#SVGID_42_);}
	.st42{fill:url(#SVGID_43_);}
	.st43{fill:url(#SVGID_44_);}
	.st44{fill:url(#SVGID_45_);}
	.st45{fill:url(#SVGID_46_);}
	.st46{fill:url(#SVGID_47_);}
	.st47{fill:url(#SVGID_48_);}
	.st48{fill:url(#SVGID_49_);}
	.st49{fill:url(#SVGID_50_);}
	.st50{fill:url(#SVGID_51_);}
	.st51{fill:url(#SVGID_52_);}
	.st52{fill:url(#SVGID_53_);}
	.st53{fill:url(#SVGID_54_);}
	.st54{fill:url(#SVGID_55_);}
	.st55{fill:url(#SVGID_56_);}
	.st56{fill:url(#SVGID_57_);}
	.st57{fill:url(#SVGID_58_);}
	.st58{fill:url(#SVGID_59_);}
	.st59{fill:url(#SVGID_60_);}
	.st60{fill:url(#SVGID_61_);}
	.st61{fill:url(#SVGID_62_);}
	.st62{fill:url(#SVGID_63_);}
	.st63{fill:url(#SVGID_64_);}
	.st64{fill:url(#SVGID_65_);}
	.st65{fill:url(#SVGID_66_);}
	.st66{fill:url(#SVGID_67_);}
	.st67{fill:url(#SVGID_68_);}
	.st68{fill:url(#SVGID_69_);}
	.st69{fill:url(#SVGID_70_);}
	.st70{fill:url(#SVGID_71_);}
	.st71{fill:url(#SVGID_72_);}
	.st72{fill:url(#SVGID_73_);}
	.st73{fill:url(#SVGID_74_);}
	.st74{fill:url(#SVGID_75_);}
	.st75{fill:url(#SVGID_76_);}
	.st76{fill:url(#SVGID_77_);}
	.st77{fill:url(#SVGID_78_);}
	.st78{fill:url(#SVGID_79_);}
	.st79{fill:url(#SVGID_80_);}
	.st80{fill:url(#SVGID_81_);}
	.st81{fill:url(#SVGID_82_);}
	.st82{fill:url(#SVGID_83_);}
	.st83{fill:url(#SVGID_84_);}
	.st84{fill:url(#SVGID_85_);}
	.st85{fill:url(#SVGID_86_);}
	.st86{fill:url(#SVGID_87_);}
	.st87{fill:url(#SVGID_88_);}
	.st88{fill:url(#SVGID_89_);}
	.st89{fill:url(#SVGID_90_);}
	.st90{fill:url(#SVGID_91_);}
	.st91{fill:url(#SVGID_92_);}
	.st92{fill:url(#SVGID_93_);}
	.st93{fill:url(#SVGID_94_);}
	.st94{fill:url(#SVGID_95_);}
	.st95{fill:url(#SVGID_96_);}
	.st96{fill:url(#SVGID_97_);}
	.st97{fill:url(#SVGID_98_);}
	.st98{fill:none;stroke:#808080;stroke-width:0.9674;stroke-linecap:round;stroke-linejoin:round;stroke-miterlimit:10;}
	.st99{clip-path:url(#SVGID_2_);fill:#666666;}
</style>
<g>
	<g>
		<defs>
			<rect id="SVGID_1_" width="750" height="500"/>
		</defs>
		<clipPath id="SVGID_2_">
			<use xlink:href="#SVGID_1_"  style="overflow:visible;"/>
		</clipPath>
		<g class="st0">
			<g>
				<g>
					<path class="st1" d="M92.2,149.7c1.9,0,1.9-2.9,0-2.9C90.3,146.8,90.3,149.7,92.2,149.7L92.2,149.7z"/>
				</g>
			</g>
			<g>
				<g>
					<g>
						<g>
							<radialGradient id="SVGID_3_" cx="324.3398" cy="156.6031" r="269.0374" gradientUnits="userSpaceOnUse">
								<stop  offset="0" style="stop-color:#B3B3B3"/>
								<stop  offset="0.5054" style="stop-color:#E6E6E6"/>
								<stop  offset="1" style="stop-color:#808080"/>
							</radialGradient>
							<path class="st2" d="M205.4,268.7c-0.2,0-0.3-0.1-0.4-0.2c-0.1-0.1-0.1-0.3,0-0.5l37.5-74.8c0.1-0.2,0.3-0.3,0.5-0.3
								c0.2,0,0.4,0.2,0.4,0.4l11.4,67.4c0,0.1,0,0.3-0.1,0.4c-0.1,0.1-0.2,0.2-0.3,0.2L205.4,268.7
								C205.5,268.7,205.4,268.7,205.4,268.7z M242.7,195l-36.4,72.7l47.5-7.2L242.7,195z"/>
						</g>
						<g>
							<radialGradient id="SVGID_4_" cx="324.34" cy="156.6031" r="269.0376" gradientUnits="userSpaceOnUse">
								<stop  offset="0" style="stop-color:#B3B3B3"/>
								<stop  offset="0.5054" style="stop-color:#E6E6E6"/>
								<stop  offset="1" style="stop-color:#808080"/>
							</radialGradient>
							<path class="st3" d="M242.9,193.9c-0.2,0-0.3-0.1-0.4-0.2L205,150.3c-0.1-0.1-0.1-0.3-0.1-0.5s0.2-0.3,0.4-0.3l89-15.2
								c0.2,0,0.4,0.1,0.5,0.2c0.1,0.2,0.1,0.4-0.1,0.6l-51.4,58.7C243.2,193.9,243.1,193.9,242.9,193.9z M206.2,150.3l36.7,42.4
								l50.1-57.2L206.2,150.3z"/>
						</g>
					</g>
					<g>
						<g>
							<radialGradient id="SVGID_5_" cx="324.34" cy="156.603" r="269.0379" gradientUnits="userSpaceOnUse">
								<stop  offset="0" style="stop-color:#B3B3B3"/>
								<stop  offset="0.5054" style="stop-color:#E6E6E6"/>
								<stop  offset="1" style="stop-color:#808080"/>
							</radialGradient>
							<path class="st4" d="M254.4,261.3C254.3,261.3,254.3,261.3,254.4,261.3c-0.3,0-0.4-0.2-0.5-0.4l-11.4-67.4
								c0-0.2,0-0.3,0.1-0.4c0.1-0.1,0.3-0.2,0.4-0.1l47.2,5.5c0.2,0,0.3,0.1,0.4,0.3c0.1,0.1,0.1,0.3,0,0.5l-35.8,61.9
								C254.7,261.2,254.5,261.3,254.4,261.3z M243.5,194l11.1,65.5l34.8-60.1L243.5,194z"/>
						</g>
						<g>
							<radialGradient id="SVGID_6_" cx="324.3402" cy="156.6031" r="269.0383" gradientUnits="userSpaceOnUse">
								<stop  offset="0" style="stop-color:#B3B3B3"/>
								<stop  offset="0.5054" style="stop-color:#E6E6E6"/>
								<stop  offset="1" style="stop-color:#808080"/>
							</radialGradient>
							<path class="st5" d="M177,199.4c-0.2,0-0.3-0.1-0.4-0.2c-0.1-0.2-0.1-0.3,0-0.5l28.3-49c0.1-0.1,0.2-0.2,0.4-0.2
								c0.2,0,0.3,0,0.4,0.2l37.6,43.5c0.1,0.1,0.2,0.3,0.1,0.5c-0.1,0.2-0.2,0.3-0.4,0.3L177,199.4
								C177.1,199.4,177.1,199.4,177,199.4z M205.4,150.8l-27.5,47.6l64-5.4L205.4,150.8z"/>
						</g>
					</g>
					<g>
						<g>
							<radialGradient id="SVGID_7_" cx="324.3401" cy="156.6032" r="269.0382" gradientUnits="userSpaceOnUse">
								<stop  offset="0" style="stop-color:#B3B3B3"/>
								<stop  offset="0.5054" style="stop-color:#E6E6E6"/>
								<stop  offset="1" style="stop-color:#808080"/>
							</radialGradient>
							<path class="st6" d="M290.2,199.4C290.1,199.4,290.1,199.4,290.2,199.4l-47.3-5.5c-0.2,0-0.3-0.1-0.4-0.3
								c-0.1-0.2,0-0.4,0.1-0.5l51.4-58.7c0.1-0.2,0.4-0.2,0.5-0.1c0.2,0.1,0.3,0.3,0.3,0.5l-4.2,64.2c0,0.1-0.1,0.3-0.2,0.3
								C290.4,199.4,290.3,199.4,290.2,199.4z M243.9,193.1l45.8,5.3l4.1-62.3L243.9,193.1z"/>
						</g>
						<g>
							<radialGradient id="SVGID_8_" cx="324.3399" cy="156.6031" r="269.0372" gradientUnits="userSpaceOnUse">
								<stop  offset="0" style="stop-color:#B3B3B3"/>
								<stop  offset="0.5054" style="stop-color:#E6E6E6"/>
								<stop  offset="1" style="stop-color:#808080"/>
							</radialGradient>
							<path class="st7" d="M205.4,268.7C205.4,268.7,205.4,268.7,205.4,268.7c-0.2,0-0.4-0.1-0.4-0.3l-28.4-69.3
								c-0.1-0.1,0-0.3,0-0.4c0.1-0.1,0.2-0.2,0.4-0.2l65.9-5.5c0.2,0,0.3,0.1,0.4,0.2c0.1,0.1,0.1,0.3,0,0.5l-37.5,74.8
								C205.8,268.6,205.6,268.7,205.4,268.7z M177.7,199.4l27.7,67.7l36.7-73.1L177.7,199.4z"/>
						</g>
					</g>
				</g>
				<g>
					<g>
						<g>
							<radialGradient id="SVGID_9_" cx="324.34" cy="156.6033" r="269.0375" gradientUnits="userSpaceOnUse">
								<stop  offset="0" style="stop-color:#B3B3B3"/>
								<stop  offset="0.5054" style="stop-color:#E6E6E6"/>
								<stop  offset="1" style="stop-color:#808080"/>
							</radialGradient>
							<path class="st8" d="M346.9,297.4h-56.6c-0.2,0-0.3-0.1-0.4-0.3c-0.1-0.2-0.1-0.3,0-0.5l45.5-69.8c0.1-0.2,0.3-0.3,0.5-0.2
								c0.2,0,0.3,0.2,0.4,0.4l11.1,69.8c0,0.1,0,0.3-0.1,0.4C347.2,297.3,347.1,297.4,346.9,297.4z M291.2,296.4h55.1l-10.8-68
								L291.2,296.4z"/>
						</g>
						<g>
							<radialGradient id="SVGID_10_" cx="324.34" cy="156.6031" r="269.0374" gradientUnits="userSpaceOnUse">
								<stop  offset="0" style="stop-color:#B3B3B3"/>
								<stop  offset="0.5054" style="stop-color:#E6E6E6"/>
								<stop  offset="1" style="stop-color:#808080"/>
							</radialGradient>
							<path class="st9" d="M335.9,227.6c-0.1,0-0.2,0-0.3-0.1l-45.5-28.2c-0.2-0.1-0.3-0.3-0.2-0.5c0.1-0.2,0.2-0.4,0.5-0.4h56.6
								c0.2,0,0.3,0.1,0.4,0.2c0.1,0.1,0.1,0.3,0.1,0.4l-11.1,28.2c-0.1,0.1-0.2,0.2-0.3,0.3C336,227.6,335.9,227.6,335.9,227.6z
								 M292,199.4l43.6,27l10.6-27H292z"/>
						</g>
					</g>
					<g>
						<g>
							<radialGradient id="SVGID_11_" cx="324.34" cy="156.6033" r="269.0373" gradientUnits="userSpaceOnUse">
								<stop  offset="0" style="stop-color:#B3B3B3"/>
								<stop  offset="0.5054" style="stop-color:#E6E6E6"/>
								<stop  offset="1" style="stop-color:#808080"/>
							</radialGradient>
							<path class="st10" d="M346.9,297.4C346.9,297.4,346.8,297.4,346.9,297.4c-0.3,0-0.4-0.2-0.5-0.4l-11.1-69.8
								c0-0.2,0-0.4,0.2-0.5c0.2-0.1,0.3-0.1,0.5,0l39.3,20.8c0.1,0.1,0.2,0.2,0.2,0.3c0,0.1,0,0.3,0,0.4l-28.3,49
								C347.2,297.3,347.1,297.4,346.9,297.4z M336.5,228l10.7,67.5l27.3-47.4L336.5,228z"/>
						</g>
						<g>
							<radialGradient id="SVGID_12_" cx="324.3399" cy="156.6032" r="269.0377" gradientUnits="userSpaceOnUse">
								<stop  offset="0" style="stop-color:#B3B3B3"/>
								<stop  offset="0.5054" style="stop-color:#E6E6E6"/>
								<stop  offset="1" style="stop-color:#808080"/>
							</radialGradient>
							<path class="st11" d="M254.6,261.3c-0.1,0-0.3-0.1-0.4-0.2c-0.1-0.2-0.2-0.4-0.1-0.6l35.8-61.9c0.1-0.1,0.2-0.2,0.3-0.2
								c0.1,0,0.3,0,0.4,0.1l45.5,28.2c0.2,0.1,0.2,0.3,0.2,0.5c0,0.2-0.1,0.3-0.3,0.4l-81.3,33.7
								C254.7,261.3,254.6,261.3,254.6,261.3z M290.5,199.6l-34.8,60.2l79.1-32.8L290.5,199.6z"/>
						</g>
					</g>
					<g>
						<g>
							<radialGradient id="SVGID_13_" cx="324.34" cy="156.6034" r="269.0374" gradientUnits="userSpaceOnUse">
								<stop  offset="0" style="stop-color:#B3B3B3"/>
								<stop  offset="0.5054" style="stop-color:#E6E6E6"/>
								<stop  offset="1" style="stop-color:#808080"/>
							</radialGradient>
							<path class="st12" d="M375.2,248.4c-0.1,0-0.2,0-0.2-0.1l-39.3-20.8c-0.2-0.1-0.3-0.4-0.2-0.6l11.1-28.2
								c0.1-0.2,0.2-0.3,0.4-0.3c0.2,0,0.4,0.1,0.5,0.2l28.3,49c0.1,0.2,0.1,0.4-0.1,0.6C375.4,248.4,375.3,248.4,375.2,248.4z
								 M336.5,226.9l37.5,19.8L347,200.1L336.5,226.9z"/>
						</g>
						<g>
							<radialGradient id="SVGID_14_" cx="324.34" cy="156.6033" r="269.0377" gradientUnits="userSpaceOnUse">
								<stop  offset="0" style="stop-color:#B3B3B3"/>
								<stop  offset="0.5054" style="stop-color:#E6E6E6"/>
								<stop  offset="1" style="stop-color:#808080"/>
							</radialGradient>
							<path class="st13" d="M290.4,297.4c-0.1,0-0.3-0.1-0.3-0.1l-35.8-36c-0.1-0.1-0.2-0.3-0.1-0.4c0-0.2,0.1-0.3,0.3-0.4
								l81.3-33.7c0.2-0.1,0.4,0,0.6,0.1c0.1,0.2,0.1,0.4,0,0.6l-45.5,69.8C290.7,297.3,290.5,297.4,290.4,297.4
								C290.4,297.4,290.4,297.4,290.4,297.4z M255.4,261l34.9,35.1l44.3-67.9L255.4,261z"/>
						</g>
					</g>
				</g>
				<g>
					<g>
						<g>
							<radialGradient id="SVGID_15_" cx="324.3399" cy="156.6029" r="269.0378" gradientUnits="userSpaceOnUse">
								<stop  offset="0" style="stop-color:#B3B3B3"/>
								<stop  offset="0.5054" style="stop-color:#E6E6E6"/>
								<stop  offset="1" style="stop-color:#808080"/>
							</radialGradient>
							<path class="st14" d="M165.5,278.9c0,0-0.1,0-0.1,0l-39.9-8.9c-0.2,0-0.3-0.2-0.4-0.3c-0.1-0.2,0-0.3,0.1-0.5l32.9-35.9
								c0.1-0.1,0.3-0.2,0.5-0.1c0.2,0.1,0.3,0.2,0.3,0.4l7,44.8c0,0.2,0,0.3-0.1,0.4C165.7,278.9,165.6,278.9,165.5,278.9z
								 M126.5,269.2l38.4,8.6l-6.8-43.1L126.5,269.2z"/>
						</g>
						<g>
							<radialGradient id="SVGID_16_" cx="324.3398" cy="156.6031" r="269.0377" gradientUnits="userSpaceOnUse">
								<stop  offset="0" style="stop-color:#B3B3B3"/>
								<stop  offset="0.5054" style="stop-color:#E6E6E6"/>
								<stop  offset="1" style="stop-color:#808080"/>
							</radialGradient>
							<path class="st15" d="M158.4,234.1c-0.1,0-0.2,0-0.3-0.1l-37.9-24.1c-0.2-0.1-0.3-0.3-0.2-0.5c0-0.2,0.2-0.3,0.4-0.4
								l56.5-10.6c0.2,0,0.4,0,0.5,0.2c0.1,0.2,0.1,0.4,0,0.5l-18.6,34.7c-0.1,0.1-0.2,0.2-0.3,0.2
								C158.5,234.1,158.5,234.1,158.4,234.1z M121.8,209.8l36.4,23.1l17.9-33.3L121.8,209.8z"/>
						</g>
					</g>
					<g>
						<g>
							<radialGradient id="SVGID_17_" cx="324.3404" cy="156.6033" r="269.0378" gradientUnits="userSpaceOnUse">
								<stop  offset="0" style="stop-color:#B3B3B3"/>
								<stop  offset="0.5054" style="stop-color:#E6E6E6"/>
								<stop  offset="1" style="stop-color:#808080"/>
							</radialGradient>
							<path class="st16" d="M165.5,278.9c-0.1,0-0.2,0-0.3-0.1c-0.1-0.1-0.2-0.2-0.2-0.3l-7-44.8c0-0.2,0.1-0.4,0.2-0.5
								c0.2-0.1,0.4-0.1,0.5,0l47,34.7c0.2,0.1,0.2,0.3,0.2,0.5c0,0.2-0.2,0.3-0.4,0.4l-40,10.2
								C165.5,278.9,165.5,278.9,165.5,278.9z M159.1,234.7l6.8,43.1l38.5-9.8L159.1,234.7z"/>
						</g>
						<g>
							<radialGradient id="SVGID_18_" cx="324.3402" cy="156.6033" r="269.0377" gradientUnits="userSpaceOnUse">
								<stop  offset="0" style="stop-color:#B3B3B3"/>
								<stop  offset="0.5054" style="stop-color:#E6E6E6"/>
								<stop  offset="1" style="stop-color:#808080"/>
							</radialGradient>
							<path class="st17" d="M55.5,277.9c-0.2,0-0.3-0.1-0.4-0.2c-0.1-0.2-0.1-0.4,0-0.6l65-67.9c0.2-0.2,0.4-0.2,0.6-0.1l37.9,24.1
								c0.2,0.1,0.2,0.3,0.2,0.4c0,0.2-0.1,0.3-0.3,0.4L55.7,277.8C55.6,277.9,55.6,277.9,55.5,277.9z M120.6,210.1L57.5,276
								l99.9-42.5L120.6,210.1z"/>
						</g>
					</g>
					<g>
						<g>
							<radialGradient id="SVGID_19_" cx="324.3397" cy="156.6035" r="269.0368" gradientUnits="userSpaceOnUse">
								<stop  offset="0" style="stop-color:#B3B3B3"/>
								<stop  offset="0.5054" style="stop-color:#E6E6E6"/>
								<stop  offset="1" style="stop-color:#808080"/>
							</radialGradient>
							<path class="st18" d="M205.4,268.7c-0.1,0-0.2,0-0.3-0.1l-47-34.7c-0.2-0.1-0.3-0.4-0.1-0.6l18.6-34.7
								c0.1-0.2,0.3-0.3,0.5-0.3c0.2,0,0.4,0.1,0.4,0.3l28.4,69.3c0.1,0.2,0,0.4-0.2,0.6C205.6,268.7,205.5,268.7,205.4,268.7z
								 M159.1,233.5l45.3,33.4L177,200.1L159.1,233.5z"/>
						</g>
						<g>
							<radialGradient id="SVGID_20_" cx="324.3404" cy="156.603" r="269.0381" gradientUnits="userSpaceOnUse">
								<stop  offset="0" style="stop-color:#B3B3B3"/>
								<stop  offset="0.5054" style="stop-color:#E6E6E6"/>
								<stop  offset="1" style="stop-color:#808080"/>
							</radialGradient>
							<path class="st19" d="M55.5,277.9c-0.2,0-0.4-0.1-0.5-0.4c-0.1-0.2,0.1-0.5,0.3-0.6l102.9-43.8c0.2-0.1,0.5,0,0.6,0.2
								c0.1,0.2,0.1,0.4,0,0.6l-32.9,35.9c-0.1,0.1-0.2,0.1-0.3,0.2L55.5,277.9C55.6,277.9,55.5,277.9,55.5,277.9z M156.6,234.9
								l-97.8,41.6l66.6-7.5L156.6,234.9z M125.5,269.5L125.5,269.5L125.5,269.5z"/>
						</g>
					</g>
				</g>
				<g>
					<g>
						<g>
							<radialGradient id="SVGID_21_" cx="324.3398" cy="156.6028" r="269.038" gradientUnits="userSpaceOnUse">
								<stop  offset="0" style="stop-color:#B3B3B3"/>
								<stop  offset="0.5054" style="stop-color:#E6E6E6"/>
								<stop  offset="1" style="stop-color:#808080"/>
							</radialGradient>
							<path class="st20" d="M223.8,362.9c-0.1,0-0.2,0-0.3-0.1c-0.2-0.1-0.2-0.3-0.2-0.5l10-65.5c0-0.2,0.1-0.3,0.3-0.4
								c0.1-0.1,0.3-0.1,0.5,0l50.9,31.1c0.1,0.1,0.2,0.2,0.2,0.4c0,0.2-0.1,0.3-0.2,0.4L224,362.8
								C224,362.8,223.9,362.9,223.8,362.9z M234.2,297.7l-9.7,63.8l59.3-33.5L234.2,297.7z"/>
						</g>
						<g>
							<radialGradient id="SVGID_22_" cx="324.3401" cy="156.6032" r="269.037" gradientUnits="userSpaceOnUse">
								<stop  offset="0" style="stop-color:#B3B3B3"/>
								<stop  offset="0.5054" style="stop-color:#E6E6E6"/>
								<stop  offset="1" style="stop-color:#808080"/>
							</radialGradient>
							<path class="st21" d="M233.8,297.4c-0.1,0-0.3-0.1-0.3-0.1l-28.2-28.6c-0.1-0.1-0.2-0.3-0.1-0.5c0.1-0.2,0.2-0.3,0.4-0.3
								l48.9-7.4c0.2,0,0.4,0.1,0.5,0.2c0.1,0.2,0.1,0.4,0,0.5l-20.8,36C234.1,297.3,234,297.4,233.8,297.4
								C233.8,297.4,233.8,297.4,233.8,297.4z M206.6,268.6l27.1,27.5l19.9-34.6L206.6,268.6z"/>
						</g>
					</g>
					<g>
						<g>
							<radialGradient id="SVGID_23_" cx="324.3398" cy="156.6032" r="269.0374" gradientUnits="userSpaceOnUse">
								<stop  offset="0" style="stop-color:#B3B3B3"/>
								<stop  offset="0.5054" style="stop-color:#E6E6E6"/>
								<stop  offset="1" style="stop-color:#808080"/>
							</radialGradient>
							<path class="st22" d="M284.7,328.5c-0.1,0-0.2,0-0.3-0.1l-50.9-31.1c-0.2-0.1-0.3-0.3-0.2-0.5c0.1-0.2,0.2-0.4,0.5-0.4h56.6
								c0.1,0,0.3,0.1,0.4,0.2c0.1,0.1,0.1,0.3,0.1,0.4l-5.7,31.1c0,0.2-0.1,0.3-0.3,0.4C284.8,328.5,284.8,328.5,284.7,328.5z
								 M235.5,297.4l48.8,29.8l5.4-29.8H235.5z"/>
						</g>
						<g>
							<radialGradient id="SVGID_24_" cx="324.34" cy="156.6029" r="269.0375" gradientUnits="userSpaceOnUse">
								<stop  offset="0" style="stop-color:#B3B3B3"/>
								<stop  offset="0.5054" style="stop-color:#E6E6E6"/>
								<stop  offset="1" style="stop-color:#808080"/>
							</radialGradient>
							<path class="st23" d="M233.8,297.4c0,0-0.1,0-0.1,0l-68.1-18.5c-0.2-0.1-0.4-0.3-0.4-0.5c0-0.2,0.2-0.4,0.4-0.5l40-10.2
								c0.2,0,0.3,0,0.5,0.1l28.2,28.6c0.2,0.2,0.2,0.4,0.1,0.6C234.1,297.3,234,297.4,233.8,297.4z M167.6,278.4l64.6,17.5
								l-26.7-27.2L167.6,278.4z"/>
						</g>
					</g>
					<g>
						<g>
							<radialGradient id="SVGID_25_" cx="324.3403" cy="156.603" r="269.038" gradientUnits="userSpaceOnUse">
								<stop  offset="0" style="stop-color:#B3B3B3"/>
								<stop  offset="0.5054" style="stop-color:#E6E6E6"/>
								<stop  offset="1" style="stop-color:#808080"/>
							</radialGradient>
							<path class="st24" d="M290.4,297.4h-56.6c-0.2,0-0.3-0.1-0.4-0.2c-0.1-0.1-0.1-0.3,0-0.5l20.8-36c0.1-0.1,0.2-0.2,0.4-0.2
								c0.2,0,0.3,0,0.4,0.1l35.8,36c0.1,0.1,0.2,0.3,0.1,0.5C290.7,297.3,290.5,297.4,290.4,297.4z M234.6,296.4h54.6l-34.5-34.8
								L234.6,296.4z"/>
						</g>
						<g>
							<radialGradient id="SVGID_26_" cx="324.3397" cy="156.6031" r="269.0373" gradientUnits="userSpaceOnUse">
								<stop  offset="0" style="stop-color:#B3B3B3"/>
								<stop  offset="0.5054" style="stop-color:#E6E6E6"/>
								<stop  offset="1" style="stop-color:#808080"/>
							</radialGradient>
							<path class="st25" d="M223.8,362.9c-0.2,0-0.3-0.1-0.4-0.2l-58.1-83.9c-0.1-0.2-0.1-0.4,0-0.6c0.1-0.2,0.3-0.2,0.5-0.2
								l68.1,18.5c0.2,0.1,0.4,0.3,0.4,0.5l-10,65.5c0,0.2-0.2,0.4-0.4,0.4C223.9,362.8,223.8,362.9,223.8,362.9z M166.8,279.2
								l56.7,81.8l9.8-63.8L166.8,279.2z"/>
						</g>
					</g>
				</g>
				<g>
					<g>
						<g>
							<radialGradient id="SVGID_27_" cx="324.3401" cy="156.603" r="269.0379" gradientUnits="userSpaceOnUse">
								<stop  offset="0" style="stop-color:#B3B3B3"/>
								<stop  offset="0.5054" style="stop-color:#E6E6E6"/>
								<stop  offset="1" style="stop-color:#808080"/>
							</radialGradient>
							<path class="st26" d="M431.5,346.4h-56.6c-0.1,0-0.3-0.1-0.4-0.2c-0.1-0.1-0.1-0.3-0.1-0.4l15.7-81.6c0-0.2,0.2-0.4,0.4-0.4
								c0.2,0,0.4,0.1,0.5,0.3l40.9,81.6c0.1,0.2,0.1,0.3,0,0.5C431.8,346.3,431.6,346.4,431.5,346.4z M375.5,345.4h55.2l-39.9-79.7
								L375.5,345.4z"/>
						</g>
						<g>
							<radialGradient id="SVGID_28_" cx="324.3398" cy="156.603" r="269.038" gradientUnits="userSpaceOnUse">
								<stop  offset="0" style="stop-color:#B3B3B3"/>
								<stop  offset="0.5054" style="stop-color:#E6E6E6"/>
								<stop  offset="1" style="stop-color:#808080"/>
							</radialGradient>
							<path class="st27" d="M390.6,264.7c-0.1,0-0.3-0.1-0.3-0.1l-15.7-16.3c-0.1-0.1-0.2-0.3-0.1-0.5c0.1-0.2,0.2-0.3,0.4-0.3
								l64.6-12.6c0.2,0,0.5,0.1,0.5,0.3c0.1,0.2,0,0.5-0.2,0.6l-48.9,28.9C390.8,264.7,390.7,264.7,390.6,264.7z M375.9,248.2
								l14.8,15.4l46.1-27.3L375.9,248.2z"/>
						</g>
					</g>
					<g>
						<g>
							<radialGradient id="SVGID_29_" cx="324.34" cy="156.6033" r="269.0372" gradientUnits="userSpaceOnUse">
								<stop  offset="0" style="stop-color:#B3B3B3"/>
								<stop  offset="0.5054" style="stop-color:#E6E6E6"/>
								<stop  offset="1" style="stop-color:#808080"/>
							</radialGradient>
							<path class="st28" d="M431.5,346.4C431.5,346.4,431.4,346.4,431.5,346.4c-0.2,0-0.4-0.1-0.4-0.3l-40.9-81.6
								c-0.1-0.2-0.1-0.4,0.1-0.6c0.1-0.1,0.4-0.2,0.6-0.1l69.1,32.6c0.1,0.1,0.2,0.2,0.3,0.3c0,0.1,0,0.3,0,0.4l-28.3,49
								C431.8,346.3,431.6,346.4,431.5,346.4z M391.7,265.3l39.8,79.6l27.6-47.7L391.7,265.3z"/>
						</g>
						<g>
							<radialGradient id="SVGID_30_" cx="324.34" cy="156.6034" r="269.0369" gradientUnits="userSpaceOnUse">
								<stop  offset="0" style="stop-color:#B3B3B3"/>
								<stop  offset="0.5054" style="stop-color:#E6E6E6"/>
								<stop  offset="1" style="stop-color:#808080"/>
							</radialGradient>
							<path class="st29" d="M346.6,297.4c-0.1,0-0.2,0-0.3-0.1c-0.2-0.2-0.2-0.4-0.1-0.6l28.3-49c0.1-0.1,0.2-0.2,0.4-0.2
								c0.2,0,0.3,0,0.4,0.1l15.7,16.3c0.1,0.1,0.1,0.2,0.1,0.4c0,0.1-0.1,0.3-0.2,0.3l-44,32.7
								C346.8,297.4,346.7,297.4,346.6,297.4z M375,248.7l-26.8,46.4l41.7-30.9L375,248.7z"/>
						</g>
					</g>
					<g>
						<g>
							<radialGradient id="SVGID_31_" cx="324.3401" cy="156.6033" r="269.0373" gradientUnits="userSpaceOnUse">
								<stop  offset="0" style="stop-color:#B3B3B3"/>
								<stop  offset="0.5054" style="stop-color:#E6E6E6"/>
								<stop  offset="1" style="stop-color:#808080"/>
							</radialGradient>
							<path class="st30" d="M459.7,297.4c-0.1,0-0.1,0-0.2,0l-69.1-32.7c-0.2-0.1-0.3-0.2-0.3-0.4c0-0.2,0.1-0.3,0.2-0.4l48.9-28.9
								c0.1-0.1,0.3-0.1,0.4,0c0.1,0.1,0.2,0.2,0.3,0.3l20.3,61.6c0.1,0.2,0,0.4-0.1,0.5C460,297.3,459.9,297.4,459.7,297.4z
								 M391.6,264.2l67.3,31.8l-19.7-59.9L391.6,264.2z"/>
						</g>
						<g>
							<radialGradient id="SVGID_32_" cx="324.3399" cy="156.6032" r="269.0373" gradientUnits="userSpaceOnUse">
								<stop  offset="0" style="stop-color:#B3B3B3"/>
								<stop  offset="0.5054" style="stop-color:#E6E6E6"/>
								<stop  offset="1" style="stop-color:#808080"/>
							</radialGradient>
							<path class="st31" d="M374.9,346.4c-0.2,0-0.3-0.1-0.4-0.2l-28.3-49c-0.1-0.2-0.1-0.5,0.1-0.6l44-32.6c0.2-0.1,0.4-0.1,0.5,0
								c0.2,0.1,0.3,0.3,0.2,0.5L375.4,346C375.3,346.2,375.2,346.3,374.9,346.4C375,346.4,374.9,346.4,374.9,346.4z M347.3,297
								l27.4,47.5l15.2-79.1L347.3,297z"/>
						</g>
					</g>
				</g>
				<g>
					<g>
						<g>
							<radialGradient id="SVGID_33_" cx="324.34" cy="156.603" r="269.0387" gradientUnits="userSpaceOnUse">
								<stop  offset="0" style="stop-color:#B3B3B3"/>
								<stop  offset="0.5054" style="stop-color:#E6E6E6"/>
								<stop  offset="1" style="stop-color:#808080"/>
							</radialGradient>
							<path class="st32" d="M459.9,395.3c-0.1,0-0.2,0-0.3-0.1c-0.2-0.1-0.3-0.4-0.2-0.6l31.2-86.7c0.1-0.2,0.2-0.3,0.5-0.3
								c0.2,0,0.4,0.2,0.4,0.4l11.3,40.4c0,0.2,0,0.3-0.1,0.5l-42.5,46.3C460.2,395.3,460.1,395.3,459.9,395.3z M491.1,309.7
								l-29.9,83l40.7-44.4L491.1,309.7z"/>
						</g>
						<g>
							<radialGradient id="SVGID_34_" cx="324.3399" cy="156.6031" r="269.0371" gradientUnits="userSpaceOnUse">
								<stop  offset="0" style="stop-color:#B3B3B3"/>
								<stop  offset="0.5054" style="stop-color:#E6E6E6"/>
								<stop  offset="1" style="stop-color:#808080"/>
							</radialGradient>
							<path class="st33" d="M491.2,308.6c-0.1,0-0.1,0-0.2,0l-31.2-11.2c-0.2-0.1-0.4-0.3-0.3-0.5c0-0.2,0.2-0.4,0.5-0.4h56.6
								c0.2,0,0.4,0.2,0.5,0.4c0,0.2-0.1,0.4-0.3,0.5l-25.3,11.2C491.3,308.6,491.2,308.6,491.2,308.6z M462.7,297.4l28.4,10.2
								l23.1-10.2H462.7z"/>
						</g>
					</g>
					<g>
						<g>
							<radialGradient id="SVGID_35_" cx="324.3395" cy="156.6031" r="269.0373" gradientUnits="userSpaceOnUse">
								<stop  offset="0" style="stop-color:#B3B3B3"/>
								<stop  offset="0.5054" style="stop-color:#E6E6E6"/>
								<stop  offset="1" style="stop-color:#808080"/>
							</radialGradient>
							<path class="st34" d="M566.9,359.1C566.8,359.1,566.8,359.1,566.9,359.1L502.4,349c-0.2,0-0.3-0.2-0.4-0.3l-11.3-40.4
								c-0.1-0.2,0-0.4,0.2-0.5c0.2-0.1,0.4-0.1,0.6,0l75.7,50.5c0.2,0.1,0.3,0.4,0.2,0.6C567.2,359,567.1,359.1,566.9,359.1z
								 M502.9,348.1l61.9,9.7L492,309.3L502.9,348.1z"/>
						</g>
						<g>
							<radialGradient id="SVGID_36_" cx="324.3398" cy="156.6032" r="269.0384" gradientUnits="userSpaceOnUse">
								<stop  offset="0" style="stop-color:#B3B3B3"/>
								<stop  offset="0.5054" style="stop-color:#E6E6E6"/>
								<stop  offset="1" style="stop-color:#808080"/>
							</radialGradient>
							<path class="st35" d="M431.7,346.4c-0.1,0-0.2,0-0.3-0.1c-0.2-0.2-0.2-0.4-0.1-0.6l28.3-49c0.1-0.2,0.4-0.3,0.6-0.2
								l31.2,11.2c0.2,0.1,0.3,0.2,0.3,0.4c0,0.2-0.1,0.4-0.2,0.5l-59.5,37.8C431.8,346.3,431.8,346.4,431.7,346.4z M460.2,297.5
								l-27.1,46.9l57-36.2L460.2,297.5z"/>
						</g>
					</g>
					<g>
						<g>
							<radialGradient id="SVGID_37_" cx="324.3402" cy="156.6032" r="269.0384" gradientUnits="userSpaceOnUse">
								<stop  offset="0" style="stop-color:#B3B3B3"/>
								<stop  offset="0.5054" style="stop-color:#E6E6E6"/>
								<stop  offset="1" style="stop-color:#808080"/>
							</radialGradient>
							<path class="st36" d="M566.9,359.1c-0.1,0-0.2,0-0.3-0.1l-75.7-50.5c-0.1-0.1-0.2-0.3-0.2-0.4c0-0.2,0.1-0.3,0.3-0.4
								l25.3-11.2c0.2-0.1,0.4,0,0.6,0.1l50.4,61.7c0.2,0.2,0.1,0.5,0,0.6C567.1,359.1,567,359.1,566.9,359.1z M492.2,308.2
								l72.3,48.2l-48.1-59L492.2,308.2z"/>
						</g>
						<g>
							<radialGradient id="SVGID_38_" cx="324.3397" cy="156.6027" r="269.038" gradientUnits="userSpaceOnUse">
								<stop  offset="0" style="stop-color:#B3B3B3"/>
								<stop  offset="0.5054" style="stop-color:#E6E6E6"/>
								<stop  offset="1" style="stop-color:#808080"/>
							</radialGradient>
							<path class="st37" d="M459.9,395.3c-0.2,0-0.3-0.1-0.4-0.2l-28.3-49c-0.1-0.2-0.1-0.5,0.2-0.6l59.5-37.8
								c0.2-0.1,0.4-0.1,0.6,0c0.2,0.1,0.2,0.3,0.2,0.5L460.4,395C460.3,395.2,460.2,395.3,459.9,395.3
								C460,395.3,460,395.3,459.9,395.3z M432.3,346l27.5,47.7l30.4-84.4L432.3,346z"/>
						</g>
					</g>
				</g>
				<g>
					<g>
						<g>
							<radialGradient id="SVGID_39_" cx="324.34" cy="156.6032" r="269.0376" gradientUnits="userSpaceOnUse">
								<stop  offset="0" style="stop-color:#B3B3B3"/>
								<stop  offset="0.5054" style="stop-color:#E6E6E6"/>
								<stop  offset="1" style="stop-color:#808080"/>
							</radialGradient>
							<path class="st38" d="M281.5,406.3c-0.2,0-0.4-0.1-0.4-0.3c-0.1-0.2,0-0.4,0.1-0.6l63.2-54.5c0.1-0.1,0.3-0.2,0.5-0.1
								c0.2,0.1,0.3,0.2,0.3,0.4l1.9,43.5c0,0.2-0.2,0.5-0.4,0.5L281.5,406.3C281.5,406.3,281.5,406.3,281.5,406.3z M344.3,352.4
								l-61.2,52.7l63-10.6L344.3,352.4z"/>
						</g>
						<g>
							<radialGradient id="SVGID_40_" cx="324.3399" cy="156.6032" r="269.0381" gradientUnits="userSpaceOnUse">
								<stop  offset="0" style="stop-color:#B3B3B3"/>
								<stop  offset="0.5054" style="stop-color:#E6E6E6"/>
								<stop  offset="1" style="stop-color:#808080"/>
							</radialGradient>
							<path class="st39" d="M344.7,351.8c-0.1,0-0.2,0-0.3-0.1l-54.7-54.5c-0.1-0.1-0.2-0.3-0.1-0.5c0.1-0.2,0.3-0.3,0.4-0.3h56.6
								c0.1,0,0.3,0.1,0.3,0.1c0.1,0.1,0.1,0.2,0.1,0.4l-1.9,54.5c0,0.2-0.1,0.4-0.3,0.4C344.9,351.8,344.8,351.8,344.7,351.8z
								 M291.2,297.4l53.1,52.8l1.8-52.8H291.2z"/>
						</g>
					</g>
					<g>
						<g>
							<radialGradient id="SVGID_41_" cx="324.34" cy="156.6031" r="269.0384" gradientUnits="userSpaceOnUse">
								<stop  offset="0" style="stop-color:#B3B3B3"/>
								<stop  offset="0.5054" style="stop-color:#E6E6E6"/>
								<stop  offset="1" style="stop-color:#808080"/>
							</radialGradient>
							<path class="st40" d="M346.6,395.3c0,0-0.1,0-0.1,0c-0.2-0.1-0.4-0.2-0.4-0.4l-1.9-43.5c0-0.2,0.2-0.5,0.4-0.5l30.2-5.5
								c0.2,0,0.4,0,0.5,0.2c0.1,0.2,0.1,0.4,0,0.5l-28.3,49C347,395.2,346.8,395.3,346.6,395.3z M345.2,351.8l1.8,41.4l26.9-46.6
								L345.2,351.8z"/>
						</g>
						<g>
							<radialGradient id="SVGID_42_" cx="324.34" cy="156.6031" r="269.037" gradientUnits="userSpaceOnUse">
								<stop  offset="0" style="stop-color:#B3B3B3"/>
								<stop  offset="0.5054" style="stop-color:#E6E6E6"/>
								<stop  offset="1" style="stop-color:#808080"/>
							</radialGradient>
							<path class="st41" d="M344.7,351.8c-0.1,0-0.1,0-0.2,0l-60.3-23.4c-0.2-0.1-0.3-0.3-0.3-0.5l5.7-31.1c0-0.2,0.2-0.3,0.3-0.4
								c0.2-0.1,0.4,0,0.5,0.1l54.7,54.5c0.2,0.2,0.2,0.4,0.1,0.6C345.1,351.8,344.9,351.8,344.7,351.8z M285,327.7l57.8,22.4
								l-52.4-52.2L285,327.7z"/>
						</g>
					</g>
					<g>
						<g>
							<radialGradient id="SVGID_43_" cx="324.34" cy="156.6032" r="269.0376" gradientUnits="userSpaceOnUse">
								<stop  offset="0" style="stop-color:#B3B3B3"/>
								<stop  offset="0.5054" style="stop-color:#E6E6E6"/>
								<stop  offset="1" style="stop-color:#808080"/>
							</radialGradient>
							<path class="st42" d="M344.7,351.8c-0.1,0-0.2,0-0.3-0.1c-0.1-0.1-0.2-0.2-0.2-0.4l1.9-54.5c0-0.2,0.2-0.4,0.4-0.5
								c0.2-0.1,0.4,0,0.5,0.2l28.3,49c0.1,0.1,0.1,0.3,0,0.4c-0.1,0.1-0.2,0.2-0.4,0.3L344.7,351.8
								C344.8,351.8,344.8,351.8,344.7,351.8z M347.1,298.6l-1.8,52.2l28.9-5.2L347.1,298.6z"/>
						</g>
						<g>
							<radialGradient id="SVGID_44_" cx="324.3399" cy="156.6031" r="269.0369" gradientUnits="userSpaceOnUse">
								<stop  offset="0" style="stop-color:#B3B3B3"/>
								<stop  offset="0.5054" style="stop-color:#E6E6E6"/>
								<stop  offset="1" style="stop-color:#808080"/>
							</radialGradient>
							<path class="st43" d="M281.5,406.3c-0.1,0-0.1,0-0.2,0c-0.2-0.1-0.3-0.3-0.3-0.5l2.9-77.9c0-0.2,0.1-0.3,0.2-0.4
								c0.1-0.1,0.3-0.1,0.4,0l60.3,23.4c0.2,0.1,0.3,0.2,0.3,0.4c0,0.2,0,0.3-0.2,0.4l-63.2,54.5
								C281.7,406.3,281.6,406.3,281.5,406.3z M284.9,328.7l-2.9,76.1l61.8-53.2L284.9,328.7z"/>
						</g>
					</g>
				</g>
				<g>
					<g>
						<g>
							<radialGradient id="SVGID_45_" cx="324.3405" cy="156.6033" r="269.0375" gradientUnits="userSpaceOnUse">
								<stop  offset="0" style="stop-color:#B3B3B3"/>
								<stop  offset="0.5054" style="stop-color:#E6E6E6"/>
								<stop  offset="1" style="stop-color:#808080"/>
							</radialGradient>
							<path class="st44" d="M566.9,359.1c-0.1,0-0.1,0-0.2,0c-0.2-0.1-0.4-0.3-0.3-0.5l13.1-90.4c0-0.2,0.2-0.4,0.4-0.4
								c0.2,0,0.4,0,0.5,0.2l19,30.9c0.1,0.1,0.1,0.3,0,0.5l-32.1,59.5C567.2,359,567,359.1,566.9,359.1z M580.3,269.7L567.7,356
								l30.7-56.8L580.3,269.7z"/>
						</g>
						<g>
							<radialGradient id="SVGID_46_" cx="324.3404" cy="156.603" r="269.0378" gradientUnits="userSpaceOnUse">
								<stop  offset="0" style="stop-color:#B3B3B3"/>
								<stop  offset="0.5054" style="stop-color:#E6E6E6"/>
								<stop  offset="1" style="stop-color:#808080"/>
							</radialGradient>
							<path class="st45" d="M580,268.8C580,268.8,580,268.8,580,268.8l-47.6-3.9c-0.2,0-0.4-0.2-0.4-0.4c0-0.2,0.1-0.5,0.4-0.5
								l68.9-16.5c0.2-0.1,0.4,0,0.5,0.2c0.1,0.2,0.1,0.4-0.1,0.6l-21.3,20.3C580.2,268.7,580.1,268.8,580,268.8z M535.5,264.2
								l44.4,3.6l19.9-19L535.5,264.2z"/>
						</g>
					</g>
					<g>
						<g>
							<radialGradient id="SVGID_47_" cx="324.3403" cy="156.6031" r="269.0379" gradientUnits="userSpaceOnUse">
								<stop  offset="0" style="stop-color:#B3B3B3"/>
								<stop  offset="0.5054" style="stop-color:#E6E6E6"/>
								<stop  offset="1" style="stop-color:#808080"/>
							</radialGradient>
							<path class="st46" d="M599,299.6c-0.2,0-0.3-0.1-0.4-0.2l-19-30.9c-0.1-0.2-0.1-0.4,0.1-0.6c0.2-0.2,0.4-0.2,0.6-0.1
								l49.6,28.6c0.2,0.1,0.3,0.3,0.2,0.5c0,0.2-0.2,0.4-0.4,0.4L599,299.6C599,299.6,599,299.6,599,299.6z M581.4,269.6l17.8,29
								l28.8-2.1L581.4,269.6z"/>
						</g>
						<g>
							<radialGradient id="SVGID_48_" cx="324.3397" cy="156.603" r="269.0383" gradientUnits="userSpaceOnUse">
								<stop  offset="0" style="stop-color:#B3B3B3"/>
								<stop  offset="0.5054" style="stop-color:#E6E6E6"/>
								<stop  offset="1" style="stop-color:#808080"/>
							</radialGradient>
							<path class="st47" d="M516.5,297.4c-0.1,0-0.3-0.1-0.3-0.1c-0.1-0.1-0.2-0.4-0.1-0.5l15.9-32.5c0.1-0.2,0.3-0.3,0.5-0.3
								l47.6,3.9c0.2,0,0.4,0.2,0.4,0.4c0,0.2-0.1,0.4-0.3,0.5l-63.5,28.6C516.6,297.4,516.6,297.4,516.5,297.4z M532.7,264.9
								l-15.2,31l60.6-27.3L532.7,264.9z"/>
						</g>
					</g>
					<g>
						<g>
							<radialGradient id="SVGID_49_" cx="324.3398" cy="156.6032" r="269.038" gradientUnits="userSpaceOnUse">
								<stop  offset="0" style="stop-color:#B3B3B3"/>
								<stop  offset="0.5054" style="stop-color:#E6E6E6"/>
								<stop  offset="1" style="stop-color:#808080"/>
							</radialGradient>
							<path class="st48" d="M629.6,297.4c-0.1,0-0.2,0-0.2-0.1l-49.6-28.6c-0.1-0.1-0.2-0.2-0.2-0.4c0-0.2,0-0.3,0.1-0.4l21.3-20.3
								c0.1-0.1,0.3-0.1,0.4-0.1c0.1,0,0.3,0.1,0.3,0.2l28.3,49c0.1,0.2,0.1,0.4-0.1,0.6C629.8,297.3,629.7,297.4,629.6,297.4z
								 M580.8,268.2l47.5,27.4l-27.1-46.9L580.8,268.2z"/>
						</g>
						<g>
							<radialGradient id="SVGID_50_" cx="324.3402" cy="156.6033" r="269.0372" gradientUnits="userSpaceOnUse">
								<stop  offset="0" style="stop-color:#B3B3B3"/>
								<stop  offset="0.5054" style="stop-color:#E6E6E6"/>
								<stop  offset="1" style="stop-color:#808080"/>
							</radialGradient>
							<path class="st49" d="M566.9,359.1c-0.1,0-0.3-0.1-0.4-0.2l-50.4-61.7c-0.1-0.1-0.1-0.3-0.1-0.4c0-0.1,0.1-0.3,0.3-0.3
								l63.5-28.6c0.2-0.1,0.3-0.1,0.5,0.1c0.1,0.1,0.2,0.3,0.2,0.5l-13.1,90.4c0,0.2-0.2,0.3-0.3,0.4
								C566.9,359.1,566.9,359.1,566.9,359.1z M517.3,297.1l49.3,60.4l12.9-88.4L517.3,297.1z"/>
						</g>
					</g>
				</g>
				<g>
					<g>
						<g>
							<radialGradient id="SVGID_51_" cx="324.3399" cy="156.603" r="269.0378" gradientUnits="userSpaceOnUse">
								<stop  offset="0" style="stop-color:#B3B3B3"/>
								<stop  offset="0.5054" style="stop-color:#E6E6E6"/>
								<stop  offset="1" style="stop-color:#808080"/>
							</radialGradient>
							<path class="st50" d="M516.5,297.1h-56.6c-0.2,0-0.3-0.1-0.4-0.2c-0.1-0.1-0.1-0.3,0-0.5l28.3-49c0.2-0.3,0.7-0.3,0.8,0
								l28.3,49c0.1,0.1,0.1,0.3,0,0.5C516.8,297,516.7,297.1,516.5,297.1z M460.8,296.1h54.9l-27.4-47.5L460.8,296.1z"/>
						</g>
						<g>
							<radialGradient id="SVGID_52_" cx="324.3402" cy="156.6033" r="269.0371" gradientUnits="userSpaceOnUse">
								<stop  offset="0" style="stop-color:#B3B3B3"/>
								<stop  offset="0.5054" style="stop-color:#E6E6E6"/>
								<stop  offset="1" style="stop-color:#808080"/>
							</radialGradient>
							<path class="st51" d="M488.2,248.1c-0.1,0-0.1,0-0.2,0c-0.2-0.1-0.3-0.2-0.3-0.4l-6-48.7c0-0.1,0-0.3,0.1-0.4
								s0.2-0.2,0.4-0.1l56.5,4.6c0.2,0,0.4,0.1,0.4,0.3c0.1,0.2,0,0.4-0.1,0.5L488.5,248C488.4,248.1,488.3,248.1,488.2,248.1z
								 M482.8,199.5l5.8,47.2l48.9-42.7L482.8,199.5z"/>
						</g>
					</g>
					<g>
						<g>
							<radialGradient id="SVGID_53_" cx="324.34" cy="156.6034" r="269.0365" gradientUnits="userSpaceOnUse">
								<stop  offset="0" style="stop-color:#B3B3B3"/>
								<stop  offset="0.5054" style="stop-color:#E6E6E6"/>
								<stop  offset="1" style="stop-color:#808080"/>
							</radialGradient>
							<path class="st52" d="M516.5,297.1c-0.2,0-0.3-0.1-0.4-0.2l-28.3-49c-0.1-0.2-0.1-0.4,0-0.6c0.1-0.2,0.3-0.2,0.5-0.1
								l44.2,16.5c0.1,0,0.2,0.1,0.3,0.3c0.1,0.1,0,0.3,0,0.4l-15.9,32.5C516.8,297,516.7,297.1,516.5,297.1
								C516.5,297.1,516.5,297.1,516.5,297.1z M489.3,248.6l27.2,47l15.3-31.2L489.3,248.6z"/>
						</g>
						<g>
							<radialGradient id="SVGID_54_" cx="324.3398" cy="156.6031" r="269.0378" gradientUnits="userSpaceOnUse">
								<stop  offset="0" style="stop-color:#B3B3B3"/>
								<stop  offset="0.5054" style="stop-color:#E6E6E6"/>
								<stop  offset="1" style="stop-color:#808080"/>
							</radialGradient>
							<path class="st53" d="M488.2,248.1c0,0-0.1,0-0.1,0l-48.6-12.6c-0.2,0-0.3-0.2-0.4-0.4c0-0.2,0-0.4,0.2-0.5l42.6-36.1
								c0.1-0.1,0.3-0.1,0.5-0.1c0.2,0.1,0.3,0.2,0.3,0.4l6,48.7c0,0.2,0,0.3-0.2,0.4C488.4,248.1,488.3,248.1,488.2,248.1z
								 M440.7,234.8l47,12.2l-5.8-47.1L440.7,234.8z"/>
						</g>
					</g>
					<g>
						<g>
							<radialGradient id="SVGID_55_" cx="324.3396" cy="156.6032" r="269.0382" gradientUnits="userSpaceOnUse">
								<stop  offset="0" style="stop-color:#B3B3B3"/>
								<stop  offset="0.5054" style="stop-color:#E6E6E6"/>
								<stop  offset="1" style="stop-color:#808080"/>
							</radialGradient>
							<path class="st54" d="M532.4,264.6c-0.1,0-0.1,0-0.2,0L488,248.1c-0.2-0.1-0.3-0.2-0.3-0.4c0-0.2,0-0.3,0.2-0.5l50.5-44.1
								c0.2-0.1,0.4-0.2,0.5-0.1c0.2,0.1,0.3,0.3,0.3,0.5l-6.3,60.5c0,0.1-0.1,0.3-0.2,0.4C532.6,264.6,532.5,264.6,532.4,264.6z
								 M489.1,247.5l42.9,16l6.1-58.7L489.1,247.5z"/>
						</g>
						<g>
							<radialGradient id="SVGID_56_" cx="324.3398" cy="156.6032" r="269.0374" gradientUnits="userSpaceOnUse">
								<stop  offset="0" style="stop-color:#B3B3B3"/>
								<stop  offset="0.5054" style="stop-color:#E6E6E6"/>
								<stop  offset="1" style="stop-color:#808080"/>
							</radialGradient>
							<path class="st55" d="M459.9,297.1C459.9,297.1,459.9,297.1,459.9,297.1c-0.2,0-0.4-0.2-0.5-0.3l-20.3-61.6
								c-0.1-0.2,0-0.4,0.1-0.5c0.1-0.1,0.3-0.2,0.5-0.1l48.6,12.6c0.1,0,0.3,0.1,0.3,0.3c0.1,0.1,0,0.3,0,0.4l-28.3,49
								C460.3,297,460.1,297.1,459.9,297.1z M440.4,235.7l19.7,59.7l27.4-47.5L440.4,235.7z"/>
						</g>
					</g>
				</g>
				<g>
					<g>
						<g>
							<radialGradient id="SVGID_57_" cx="324.3398" cy="156.6031" r="269.0376" gradientUnits="userSpaceOnUse">
								<stop  offset="0" style="stop-color:#B3B3B3"/>
								<stop  offset="0.5054" style="stop-color:#E6E6E6"/>
								<stop  offset="1" style="stop-color:#808080"/>
							</radialGradient>
							<path class="st56" d="M538.7,204.1C538.7,204.1,538.7,204.1,538.7,204.1l-56.5-4.6c-0.2,0-0.4-0.2-0.4-0.4l-16-63.9
								c-0.1-0.2,0-0.4,0.2-0.5c0.2-0.1,0.4-0.1,0.6,0.1l72.4,68.6c0.1,0.1,0.2,0.4,0.1,0.5C539.1,203.9,538.9,204.1,538.7,204.1z
								 M482.6,198.5l54.8,4.5l-70.2-66.5L482.6,198.5z"/>
						</g>
						<g>
							<radialGradient id="SVGID_58_" cx="324.3398" cy="156.6032" r="269.038" gradientUnits="userSpaceOnUse">
								<stop  offset="0" style="stop-color:#B3B3B3"/>
								<stop  offset="0.5054" style="stop-color:#E6E6E6"/>
								<stop  offset="1" style="stop-color:#808080"/>
							</radialGradient>
							<path class="st57" d="M466.3,135.5c-0.1,0-0.1,0-0.2,0c-0.2-0.1-0.3-0.2-0.3-0.4l-6.3-34.3c0-0.1,0-0.3,0.1-0.4
								c0.1-0.1,0.2-0.2,0.4-0.2h56.6c0.2,0,0.4,0.1,0.5,0.3c0.1,0.2,0,0.4-0.2,0.5l-50.2,34.3C466.5,135.5,466.4,135.5,466.3,135.5
								z M460.5,101.2l6.1,33l48.3-33H460.5z"/>
						</g>
					</g>
					<g>
						<g>
							<radialGradient id="SVGID_59_" cx="324.3401" cy="156.6031" r="269.0379" gradientUnits="userSpaceOnUse">
								<stop  offset="0" style="stop-color:#B3B3B3"/>
								<stop  offset="0.5054" style="stop-color:#E6E6E6"/>
								<stop  offset="1" style="stop-color:#808080"/>
							</radialGradient>
							<path class="st58" d="M538.7,204.1c-0.1,0-0.2,0-0.3-0.1l-72.4-68.6c-0.2-0.2-0.2-0.4-0.1-0.6c0.1-0.2,0.3-0.3,0.6-0.2
								l83.6,23.2c0.3,0.1,0.4,0.3,0.3,0.6l-11.1,45.3c0,0.2-0.2,0.3-0.3,0.3C538.8,204.1,538.7,204.1,538.7,204.1z M468,136
								l70.4,66.7l10.8-44.1L468,136z"/>
						</g>
						<g>
							<radialGradient id="SVGID_60_" cx="324.3401" cy="156.6031" r="269.0376" gradientUnits="userSpaceOnUse">
								<stop  offset="0" style="stop-color:#B3B3B3"/>
								<stop  offset="0.5054" style="stop-color:#E6E6E6"/>
								<stop  offset="1" style="stop-color:#808080"/>
							</radialGradient>
							<path class="st59" d="M431.7,150.2c-0.1,0-0.3-0.1-0.4-0.2c-0.1-0.2-0.2-0.4-0.1-0.6l28.3-49c0.1-0.2,0.3-0.3,0.5-0.2
								c0.2,0,0.4,0.2,0.4,0.4l6.3,34.3c0,0.2-0.1,0.4-0.3,0.5l-34.6,14.7C431.8,150.1,431.7,150.2,431.7,150.2z M459.7,102.1
								l-26.9,46.6l32.9-13.9L459.7,102.1z"/>
						</g>
					</g>
					<g>
						<g>
							<radialGradient id="SVGID_61_" cx="324.34" cy="156.6031" r="269.0373" gradientUnits="userSpaceOnUse">
								<stop  offset="0" style="stop-color:#B3B3B3"/>
								<stop  offset="0.5054" style="stop-color:#E6E6E6"/>
								<stop  offset="1" style="stop-color:#808080"/>
							</radialGradient>
							<path class="st60" d="M549.8,158.7c0,0-0.1,0-0.1,0l-83.6-23.2c-0.2-0.1-0.3-0.2-0.3-0.4c0-0.2,0-0.4,0.2-0.5l50.2-34.3
								c0.1-0.1,0.3-0.1,0.4-0.1c0.1,0,0.2,0.1,0.3,0.2l33.3,57.6c0.1,0.2,0.1,0.4,0,0.5C550.1,158.7,550,158.7,549.8,158.7z
								 M467.4,134.8l81.4,22.6l-32.5-56.1L467.4,134.8z"/>
						</g>
						<g>
							<radialGradient id="SVGID_62_" cx="324.3401" cy="156.6031" r="269.038" gradientUnits="userSpaceOnUse">
								<stop  offset="0" style="stop-color:#B3B3B3"/>
								<stop  offset="0.5054" style="stop-color:#E6E6E6"/>
								<stop  offset="1" style="stop-color:#808080"/>
							</radialGradient>
							<path class="st61" d="M482.2,199.4c-0.1,0-0.2,0-0.3-0.1L431.3,150c-0.1-0.1-0.2-0.3-0.1-0.4c0-0.2,0.1-0.3,0.3-0.4
								l34.6-14.7c0.1-0.1,0.3-0.1,0.4,0c0.1,0.1,0.2,0.2,0.3,0.3l16,63.9c0.1,0.2,0,0.4-0.2,0.5
								C482.4,199.4,482.3,199.4,482.2,199.4z M432.5,149.8l48.8,47.6l-15.4-61.7L432.5,149.8z"/>
						</g>
					</g>
				</g>
				<g>
					<g>
						<g>
							<radialGradient id="SVGID_63_" cx="324.3402" cy="156.6032" r="269.0371" gradientUnits="userSpaceOnUse">
								<stop  offset="0" style="stop-color:#B3B3B3"/>
								<stop  offset="0.5054" style="stop-color:#E6E6E6"/>
								<stop  offset="1" style="stop-color:#808080"/>
							</radialGradient>
							<path class="st62" d="M532.5,264.9c-0.2,0-0.3-0.1-0.4-0.2c-0.1-0.2-0.1-0.4,0-0.6l35.7-41.4c0.2-0.2,0.5-0.2,0.7-0.1
								l33.2,24.9c0.2,0.1,0.2,0.3,0.2,0.5c0,0.2-0.2,0.3-0.4,0.4l-68.9,16.5C532.6,264.9,532.6,264.9,532.5,264.9z M568.3,223.7
								l-34.4,39.9l66.5-15.9L568.3,223.7z"/>
						</g>
						<g>
							<radialGradient id="SVGID_64_" cx="324.34" cy="156.6032" r="269.0375" gradientUnits="userSpaceOnUse">
								<stop  offset="0" style="stop-color:#B3B3B3"/>
								<stop  offset="0.5054" style="stop-color:#E6E6E6"/>
								<stop  offset="1" style="stop-color:#808080"/>
							</radialGradient>
							<path class="st63" d="M568.2,223.5C568.2,223.5,568.2,223.5,568.2,223.5c-0.2,0-0.4-0.2-0.5-0.4l-18.3-64.5
								c0-0.1,0-0.3,0.1-0.4c0.1-0.1,0.2-0.2,0.3-0.2l51.5-8.6c0.2,0,0.4,0,0.5,0.2c0.1,0.1,0.1,0.3,0.1,0.5l-33.2,73.1
								C568.6,223.4,568.4,223.5,568.2,223.5z M550.6,158.9l17.8,62.7l32.3-71L550.6,158.9z"/>
						</g>
					</g>
					<g>
						<g>
							<radialGradient id="SVGID_65_" cx="324.3401" cy="156.6033" r="269.037" gradientUnits="userSpaceOnUse">
								<stop  offset="0" style="stop-color:#B3B3B3"/>
								<stop  offset="0.5054" style="stop-color:#E6E6E6"/>
								<stop  offset="1" style="stop-color:#808080"/>
							</radialGradient>
							<path class="st64" d="M601.4,248.4c-0.1,0-0.2,0-0.3-0.1l-33.2-24.9c-0.1-0.1-0.2-0.3-0.2-0.5c0-0.2,0.1-0.3,0.3-0.4
								l61.5-24.1c0.2-0.1,0.4,0,0.5,0.1c0.1,0.2,0.2,0.4,0.1,0.6l-28.3,49C601.8,248.3,601.7,248.4,601.4,248.4
								C601.5,248.4,601.5,248.4,601.4,248.4z M569.2,223.2l32.1,24l27.3-47.3L569.2,223.2z"/>
						</g>
						<g>
							<radialGradient id="SVGID_66_" cx="324.34" cy="156.6032" r="269.0368" gradientUnits="userSpaceOnUse">
								<stop  offset="0" style="stop-color:#B3B3B3"/>
								<stop  offset="0.5054" style="stop-color:#E6E6E6"/>
								<stop  offset="1" style="stop-color:#808080"/>
							</radialGradient>
							<path class="st65" d="M568.2,223.5c-0.1,0-0.2,0-0.3-0.1l-29.4-19.2c-0.2-0.1-0.3-0.3-0.2-0.5l11.1-45.3
								c0.1-0.2,0.2-0.4,0.5-0.4c0.3,0,0.4,0.1,0.5,0.4l18.3,64.5c0.1,0.2,0,0.4-0.2,0.5C568.4,223.5,568.3,223.5,568.2,223.5z
								 M539.4,203.6l28,18.3L550,160.4L539.4,203.6z"/>
						</g>
					</g>
					<g>
						<g>
							<radialGradient id="SVGID_67_" cx="324.34" cy="156.6031" r="269.0377" gradientUnits="userSpaceOnUse">
								<stop  offset="0" style="stop-color:#B3B3B3"/>
								<stop  offset="0.5054" style="stop-color:#E6E6E6"/>
								<stop  offset="1" style="stop-color:#808080"/>
							</radialGradient>
							<path class="st66" d="M568.2,223.5c-0.1,0-0.3-0.1-0.4-0.2c-0.1-0.1-0.2-0.4-0.1-0.5l33.2-73.1c0.1-0.2,0.2-0.3,0.4-0.3
								c0.2,0,0.4,0.1,0.4,0.2l28.3,49c0.1,0.1,0.1,0.3,0,0.4c0,0.1-0.1,0.2-0.3,0.3l-61.5,24.1
								C568.3,223.5,568.3,223.5,568.2,223.5z M601.5,151l-32.3,71.1l59.9-23.4L601.5,151z"/>
						</g>
						<g>
							<radialGradient id="SVGID_68_" cx="324.3399" cy="156.6029" r="269.0377" gradientUnits="userSpaceOnUse">
								<stop  offset="0" style="stop-color:#B3B3B3"/>
								<stop  offset="0.5054" style="stop-color:#E6E6E6"/>
								<stop  offset="1" style="stop-color:#808080"/>
							</radialGradient>
							<path class="st67" d="M532.5,264.9c-0.1,0-0.1,0-0.2,0c-0.2-0.1-0.3-0.3-0.3-0.5l6.3-60.5c0-0.2,0.1-0.3,0.3-0.4
								c0.2-0.1,0.3-0.1,0.5,0l29.4,19.2c0.1,0.1,0.2,0.2,0.2,0.3c0,0.1,0,0.3-0.1,0.4l-35.7,41.4
								C532.8,264.8,532.7,264.9,532.5,264.9z M539.2,204.7l-6,58.2l34.3-39.8L539.2,204.7z"/>
						</g>
					</g>
				</g>
				<g>
					<g>
						<g>
							<radialGradient id="SVGID_69_" cx="324.3401" cy="156.6028" r="269.0377" gradientUnits="userSpaceOnUse">
								<stop  offset="0" style="stop-color:#B3B3B3"/>
								<stop  offset="0.5054" style="stop-color:#E6E6E6"/>
								<stop  offset="1" style="stop-color:#808080"/>
							</radialGradient>
							<path class="st68" d="M708.3,359.1c-0.1,0-0.2,0-0.3-0.1l-78.7-62c-0.1-0.1-0.2-0.2-0.2-0.4c0-0.1,0.1-0.3,0.2-0.4l35.1-30.8
								c0.1-0.1,0.3-0.1,0.4-0.1c0.1,0,0.3,0.1,0.3,0.3l43.6,92.8c0.1,0.2,0,0.4-0.1,0.6C708.6,359.1,708.5,359.1,708.3,359.1z
								 M630.4,296.6L707,357l-42.5-90.4L630.4,296.6z"/>
						</g>
						<g>
							<radialGradient id="SVGID_70_" cx="324.3398" cy="156.6031" r="269.0376" gradientUnits="userSpaceOnUse">
								<stop  offset="0" style="stop-color:#B3B3B3"/>
								<stop  offset="0.5054" style="stop-color:#E6E6E6"/>
								<stop  offset="1" style="stop-color:#808080"/>
							</radialGradient>
							<path class="st69" d="M664.7,266.3C664.7,266.3,664.7,266.3,664.7,266.3c-0.2,0-0.4-0.1-0.4-0.3l-35.1-67.2
								c-0.1-0.1-0.1-0.3,0-0.5c0.1-0.1,0.2-0.2,0.4-0.2l87.8-6.5c0.2,0,0.4,0.1,0.5,0.2c0.1,0.2,0.1,0.4,0,0.5l-52.7,73.7
								C665,266.2,664.9,266.3,664.7,266.3z M630.4,199.1l34.4,65.8l51.6-72.2L630.4,199.1z"/>
						</g>
					</g>
					<g>
						<g>
							<radialGradient id="SVGID_71_" cx="324.3398" cy="156.6032" r="269.0377" gradientUnits="userSpaceOnUse">
								<stop  offset="0" style="stop-color:#B3B3B3"/>
								<stop  offset="0.5054" style="stop-color:#E6E6E6"/>
								<stop  offset="1" style="stop-color:#808080"/>
							</radialGradient>
							<path class="st70" d="M708.3,359.1c-0.2,0-0.4-0.1-0.4-0.3L664.3,266c-0.1-0.2,0-0.5,0.2-0.6l100.8-60.2
								c0.2-0.1,0.4-0.1,0.6,0c0.2,0.1,0.2,0.3,0.1,0.5l-57.1,153C708.7,359,708.6,359.1,708.3,359.1
								C708.4,359.1,708.3,359.1,708.3,359.1z M665.4,266l42.9,91.4l56.3-150.7L665.4,266z"/>
						</g>
						<g>
							<radialGradient id="SVGID_72_" cx="324.3402" cy="156.6034" r="269.038" gradientUnits="userSpaceOnUse">
								<stop  offset="0" style="stop-color:#B3B3B3"/>
								<stop  offset="0.5054" style="stop-color:#E6E6E6"/>
								<stop  offset="1" style="stop-color:#808080"/>
							</radialGradient>
							<path class="st71" d="M664.7,266.3c0,0-0.1,0-0.1,0l-63.3-18.2c-0.1,0-0.3-0.1-0.3-0.3c-0.1-0.1,0-0.3,0-0.4l28.3-49
								c0.1-0.2,0.3-0.2,0.4-0.2c0.2,0,0.3,0.1,0.4,0.3l35.1,67.2c0.1,0.2,0.1,0.4-0.1,0.5C665,266.2,664.9,266.3,664.7,266.3z
								 M602.1,247.3l61.7,17.7l-34.1-65.4L602.1,247.3z"/>
						</g>
					</g>
					<g>
						<g>
							<radialGradient id="SVGID_73_" cx="324.3395" cy="156.6031" r="269.0378" gradientUnits="userSpaceOnUse">
								<stop  offset="0" style="stop-color:#B3B3B3"/>
								<stop  offset="0.5054" style="stop-color:#E6E6E6"/>
								<stop  offset="1" style="stop-color:#808080"/>
							</radialGradient>
							<path class="st72" d="M664.7,266.3c-0.1,0-0.3-0.1-0.4-0.2c-0.2-0.2-0.2-0.4,0-0.6l52.7-73.7c0.1-0.2,0.3-0.2,0.5-0.2
								l48.1,13.5c0.2,0.1,0.3,0.2,0.3,0.4c0,0.2-0.1,0.4-0.2,0.5L665,266.2C664.9,266.3,664.8,266.3,664.7,266.3z M717.6,192.7
								l-51.1,71.5l97.8-58.5L717.6,192.7z"/>
						</g>
						<g>
							<radialGradient id="SVGID_74_" cx="324.34" cy="156.6033" r="269.0388" gradientUnits="userSpaceOnUse">
								<stop  offset="0" style="stop-color:#B3B3B3"/>
								<stop  offset="0.5054" style="stop-color:#E6E6E6"/>
								<stop  offset="1" style="stop-color:#808080"/>
							</radialGradient>
							<path class="st73" d="M629.7,297.1C629.6,297.1,629.6,297.1,629.7,297.1c-0.2,0-0.3-0.1-0.4-0.2l-28.3-49
								c-0.1-0.2-0.1-0.4,0-0.5c0.1-0.2,0.3-0.2,0.5-0.2l63.3,18.2c0.2,0,0.3,0.2,0.3,0.4c0,0.2,0,0.4-0.2,0.5L630,297
								C629.9,297,629.8,297.1,629.7,297.1z M602.4,248.4l27.4,47.4l34-29.8L602.4,248.4z"/>
						</g>
					</g>
				</g>
				<g>
					<g>
						<g>
							<radialGradient id="SVGID_75_" cx="324.3402" cy="156.6034" r="269.0369" gradientUnits="userSpaceOnUse">
								<stop  offset="0" style="stop-color:#B3B3B3"/>
								<stop  offset="0.5054" style="stop-color:#E6E6E6"/>
								<stop  offset="1" style="stop-color:#808080"/>
							</radialGradient>
							<path class="st74" d="M120.5,395.3c-0.1,0-0.2,0-0.3-0.1c-0.2-0.2-0.2-0.4-0.1-0.6l50.7-77.4c0.1-0.2,0.3-0.2,0.5-0.2
								c0.2,0,0.3,0.1,0.4,0.3l10.7,30.4c0.1,0.2,0,0.4-0.2,0.5l-61.4,47C120.7,395.3,120.6,395.3,120.5,395.3z M171.1,318.5
								l-48.6,74.2l58.9-45.1L171.1,318.5z"/>
						</g>
						<g>
							<radialGradient id="SVGID_76_" cx="324.3401" cy="156.6031" r="269.0379" gradientUnits="userSpaceOnUse">
								<stop  offset="0" style="stop-color:#B3B3B3"/>
								<stop  offset="0.5054" style="stop-color:#E6E6E6"/>
								<stop  offset="1" style="stop-color:#808080"/>
							</radialGradient>
							<path class="st75" d="M171.2,317.9c-0.1,0-0.3-0.1-0.4-0.2l-45.6-48c-0.1-0.2-0.2-0.4-0.1-0.6c0.1-0.2,0.3-0.3,0.5-0.2
								l39.9,8.9c0.2,0,0.3,0.2,0.4,0.4l5.7,39c0,0.2-0.1,0.4-0.3,0.5C171.3,317.9,171.3,317.9,171.2,317.9z M127,270.3l43.5,45.7
								l-5.5-37.2L127,270.3z"/>
						</g>
					</g>
					<g>
						<g>
							<radialGradient id="SVGID_77_" cx="324.3399" cy="156.6032" r="269.037" gradientUnits="userSpaceOnUse">
								<stop  offset="0" style="stop-color:#B3B3B3"/>
								<stop  offset="0.5054" style="stop-color:#E6E6E6"/>
								<stop  offset="1" style="stop-color:#808080"/>
							</radialGradient>
							<path class="st76" d="M223.6,362.9c-0.1,0-0.1,0-0.2,0l-41.7-14.5c-0.1,0-0.2-0.2-0.3-0.3l-10.7-30.4c-0.1-0.2,0-0.4,0.2-0.6
								c0.2-0.1,0.4-0.1,0.6,0l52.4,44.9c0.2,0.2,0.2,0.4,0.1,0.6C223.9,362.8,223.8,362.9,223.6,362.9z M182.3,347.5l39,13.6
								L172.2,319L182.3,347.5z"/>
						</g>
						<g>
							<radialGradient id="SVGID_78_" cx="324.3398" cy="156.6031" r="269.0374" gradientUnits="userSpaceOnUse">
								<stop  offset="0" style="stop-color:#B3B3B3"/>
								<stop  offset="0.5054" style="stop-color:#E6E6E6"/>
								<stop  offset="1" style="stop-color:#808080"/>
							</radialGradient>
							<path class="st77" d="M102,330.1c-0.1,0-0.3-0.1-0.4-0.2c-0.1-0.1-0.1-0.3-0.1-0.5l23.5-60.1c0.1-0.2,0.2-0.3,0.4-0.3
								c0.2,0,0.3,0,0.4,0.1l45.6,48c0.1,0.1,0.2,0.3,0.1,0.5c-0.1,0.2-0.2,0.3-0.4,0.3L102,330.1
								C102.1,330.1,102.1,330.1,102,330.1z M125.7,270.4L102.8,329l67.4-11.9L125.7,270.4z"/>
						</g>
					</g>
					<g>
						<g>
							<radialGradient id="SVGID_79_" cx="324.3397" cy="156.6031" r="269.038" gradientUnits="userSpaceOnUse">
								<stop  offset="0" style="stop-color:#B3B3B3"/>
								<stop  offset="0.5054" style="stop-color:#E6E6E6"/>
								<stop  offset="1" style="stop-color:#808080"/>
							</radialGradient>
							<path class="st78" d="M223.6,362.9c-0.1,0-0.2,0-0.3-0.1l-52.4-44.9c-0.1-0.1-0.1-0.2-0.2-0.3l-5.7-39c0-0.2,0.1-0.4,0.3-0.5
								c0.2-0.1,0.4,0,0.6,0.2l58.1,83.9c0.1,0.2,0.1,0.5-0.1,0.6C223.8,362.8,223.7,362.9,223.6,362.9z M171.6,317.2l49.4,42.4
								l-54.8-79.2L171.6,317.2z"/>
						</g>
						<g>
							<radialGradient id="SVGID_80_" cx="324.3398" cy="156.6029" r="269.0381" gradientUnits="userSpaceOnUse">
								<stop  offset="0" style="stop-color:#B3B3B3"/>
								<stop  offset="0.5054" style="stop-color:#E6E6E6"/>
								<stop  offset="1" style="stop-color:#808080"/>
							</radialGradient>
							<path class="st79" d="M120.5,395.3C120.5,395.3,120.4,395.3,120.5,395.3c-0.3,0-0.4-0.2-0.5-0.4l-18.5-65.2
								c0-0.1,0-0.3,0.1-0.4c0.1-0.1,0.2-0.2,0.3-0.2l69.2-12.2c0.2,0,0.4,0,0.5,0.2c0.1,0.2,0.1,0.4,0,0.5l-50.7,77.4
								C120.8,395.3,120.7,395.3,120.5,395.3z M102.6,330l18,63.7l49.5-75.6L102.6,330z"/>
						</g>
					</g>
				</g>
				<g>
					<g>
						<g>
							<radialGradient id="SVGID_81_" cx="324.3395" cy="156.6031" r="269.0381" gradientUnits="userSpaceOnUse">
								<stop  offset="0" style="stop-color:#B3B3B3"/>
								<stop  offset="0.5054" style="stop-color:#E6E6E6"/>
								<stop  offset="1" style="stop-color:#808080"/>
							</radialGradient>
							<path class="st80" d="M55.4,277.9c0,0-0.1,0-0.1,0l-60.6-15.3c-0.2,0-0.3-0.2-0.4-0.4c0-0.2,0-0.4,0.2-0.5l88.9-71.9
								c0.2-0.1,0.4-0.1,0.6,0c0.2,0.1,0.3,0.3,0.2,0.5l-28.3,87.2C55.8,277.7,55.6,277.9,55.4,277.9z M-4.2,261.8l59.3,15
								l27.6-85.2L-4.2,261.8z"/>
						</g>
						<g>
							<radialGradient id="SVGID_82_" cx="324.3395" cy="156.6032" r="269.0378" gradientUnits="userSpaceOnUse">
								<stop  offset="0" style="stop-color:#B3B3B3"/>
								<stop  offset="0.5054" style="stop-color:#E6E6E6"/>
								<stop  offset="1" style="stop-color:#808080"/>
							</radialGradient>
							<path class="st81" d="M83.6,190.6c-0.1,0-0.2,0-0.3-0.1l-48.1-40.2c-0.2-0.1-0.2-0.3-0.1-0.5c0.1-0.2,0.3-0.3,0.5-0.3h56.6
								c0.1,0,0.3,0.1,0.4,0.2c0.1,0.1,0.1,0.3,0.1,0.4l-8.4,40.2c0,0.2-0.2,0.3-0.3,0.4C83.8,190.6,83.7,190.6,83.6,190.6z
								 M36.9,150.4l46.5,38.8l8.2-38.8H36.9z"/>
						</g>
					</g>
					<g>
						<g>
							<radialGradient id="SVGID_83_" cx="324.3399" cy="156.6032" r="269.0379" gradientUnits="userSpaceOnUse">
								<stop  offset="0" style="stop-color:#B3B3B3"/>
								<stop  offset="0.5054" style="stop-color:#E6E6E6"/>
								<stop  offset="1" style="stop-color:#808080"/>
							</radialGradient>
							<path class="st82" d="M55.4,277.9c-0.1,0-0.2,0-0.2-0.1c-0.2-0.1-0.3-0.3-0.2-0.6L83.2,190c0-0.1,0.1-0.2,0.3-0.3
								c0.1-0.1,0.3,0,0.4,0l36.8,19.3c0.1,0.1,0.2,0.2,0.3,0.4c0,0.1,0,0.3-0.1,0.4l-65,67.9C55.6,277.8,55.5,277.9,55.4,277.9z
								 M83.9,190.9l-27.4,84.7l63.1-65.9L83.9,190.9z"/>
						</g>
						<g>
							<radialGradient id="SVGID_84_" cx="324.3404" cy="156.6032" r="269.0388" gradientUnits="userSpaceOnUse">
								<stop  offset="0" style="stop-color:#B3B3B3"/>
								<stop  offset="0.5054" style="stop-color:#E6E6E6"/>
								<stop  offset="1" style="stop-color:#808080"/>
							</radialGradient>
							<path class="st83" d="M7.3,199.4c-0.2,0-0.3-0.1-0.4-0.2c-0.1-0.2-0.1-0.3,0-0.5l28.3-49c0.1-0.1,0.2-0.2,0.3-0.2
								c0.1,0,0.3,0,0.4,0.1L84,189.8c0.1,0.1,0.2,0.3,0.2,0.5c-0.1,0.2-0.2,0.3-0.4,0.3L7.3,199.4C7.3,199.4,7.3,199.4,7.3,199.4z
								 M35.7,150.7L8.2,198.3l74.3-8.5L35.7,150.7z"/>
						</g>
					</g>
					<g>
						<g>
							<radialGradient id="SVGID_85_" cx="324.3399" cy="156.6032" r="269.0382" gradientUnits="userSpaceOnUse">
								<stop  offset="0" style="stop-color:#B3B3B3"/>
								<stop  offset="0.5054" style="stop-color:#E6E6E6"/>
								<stop  offset="1" style="stop-color:#808080"/>
							</radialGradient>
							<path class="st84" d="M120.4,210c-0.1,0-0.2,0-0.2-0.1l-36.8-19.3c-0.2-0.1-0.3-0.3-0.2-0.5l8.4-40.2c0-0.2,0.2-0.4,0.4-0.4
								c0.2,0,0.4,0.1,0.5,0.3l28.3,59.6c0.1,0.2,0,0.4-0.1,0.6C120.7,209.9,120.6,210,120.4,210z M84.2,189.9l35.2,18.5l-27.1-57
								L84.2,189.9z"/>
						</g>
						<g>
							<radialGradient id="SVGID_86_" cx="324.3403" cy="156.6031" r="269.0377" gradientUnits="userSpaceOnUse">
								<stop  offset="0" style="stop-color:#B3B3B3"/>
								<stop  offset="0.5054" style="stop-color:#E6E6E6"/>
								<stop  offset="1" style="stop-color:#808080"/>
							</radialGradient>
							<path class="st85" d="M-5.2,262.5c-0.1,0-0.2,0-0.3-0.1c-0.2-0.1-0.3-0.3-0.2-0.5l12.5-63.1c0-0.2,0.2-0.4,0.4-0.4l76.4-8.8
								c0.2,0,0.4,0.1,0.5,0.3c0.1,0.2,0,0.4-0.1,0.6l-88.9,71.9C-5,262.5-5.1,262.5-5.2,262.5z M7.7,199.4l-12.2,61.4l86.5-70
								L7.7,199.4z"/>
						</g>
					</g>
				</g>
				<g>
					<g>
						<g>
							<radialGradient id="SVGID_87_" cx="324.3404" cy="156.6031" r="269.0372" gradientUnits="userSpaceOnUse">
								<stop  offset="0" style="stop-color:#B3B3B3"/>
								<stop  offset="0.5054" style="stop-color:#E6E6E6"/>
								<stop  offset="1" style="stop-color:#808080"/>
							</radialGradient>
							<path class="st86" d="M629.7,199.4c-0.2,0-0.4-0.1-0.4-0.3c-0.1-0.2-0.1-0.4,0.1-0.5l53.2-59.6c0.1-0.1,0.2-0.2,0.4-0.2
								c0.2,0,0.3,0.1,0.4,0.2l34.5,53c0.1,0.1,0.1,0.3,0,0.5c-0.1,0.2-0.2,0.3-0.4,0.3L629.7,199.4
								C629.7,199.4,629.7,199.4,629.7,199.4z M682.8,140.1l-52,58.2l85.7-6.4L682.8,140.1z"/>
						</g>
						<g>
							<radialGradient id="SVGID_88_" cx="324.3399" cy="156.6031" r="269.0377" gradientUnits="userSpaceOnUse">
								<stop  offset="0" style="stop-color:#B3B3B3"/>
								<stop  offset="0.5054" style="stop-color:#E6E6E6"/>
								<stop  offset="1" style="stop-color:#808080"/>
							</radialGradient>
							<path class="st87" d="M682.9,139.8c-0.1,0-0.3-0.1-0.4-0.2L647.1,101c-0.1-0.1-0.2-0.3-0.1-0.5c0-0.2,0.2-0.3,0.3-0.3
								l90.4-24.7c0.2-0.1,0.4,0,0.5,0.2c0.1,0.2,0.1,0.4,0,0.6l-55,63.3C683.2,139.7,683.1,139.8,682.9,139.8
								C682.9,139.8,682.9,139.8,682.9,139.8z M648.4,101l34.5,37.6l53.6-61.7L648.4,101z"/>
						</g>
					</g>
					<g>
						<g>
							<radialGradient id="SVGID_89_" cx="324.3401" cy="156.6032" r="269.0375" gradientUnits="userSpaceOnUse">
								<stop  offset="0" style="stop-color:#B3B3B3"/>
								<stop  offset="0.5054" style="stop-color:#E6E6E6"/>
								<stop  offset="1" style="stop-color:#808080"/>
							</radialGradient>
							<path class="st88" d="M717.4,192.8C717.4,192.8,717.4,192.8,717.4,192.8c-0.2,0-0.3-0.1-0.4-0.2l-34.5-53
								c-0.1-0.2-0.1-0.4,0-0.6c0.1-0.2,0.4-0.2,0.6-0.1l69,27.5c0.2,0.1,0.3,0.2,0.3,0.4c0,0.2-0.1,0.3-0.2,0.5l-34.5,25.5
								C717.6,192.8,717.5,192.8,717.4,192.8z M684.1,140.3l33.4,51.3L751,167L684.1,140.3z"/>
						</g>
						<g>
							<radialGradient id="SVGID_90_" cx="324.3397" cy="156.6032" r="269.0378" gradientUnits="userSpaceOnUse">
								<stop  offset="0" style="stop-color:#B3B3B3"/>
								<stop  offset="0.5054" style="stop-color:#E6E6E6"/>
								<stop  offset="1" style="stop-color:#808080"/>
							</radialGradient>
							<path class="st89" d="M601.4,150.4c-0.2,0-0.3-0.1-0.4-0.3c-0.1-0.2-0.1-0.4,0.1-0.6l46.1-49.2c0.1-0.1,0.2-0.2,0.4-0.2
								c0.1,0,0.3,0.1,0.4,0.2l35.4,38.6c0.1,0.1,0.2,0.3,0.1,0.5c-0.1,0.2-0.2,0.3-0.4,0.3L601.4,150.4
								C601.4,150.4,601.4,150.4,601.4,150.4z M647.5,101.4l-44.8,47.8l79.3-10.3L647.5,101.4z"/>
						</g>
					</g>
					<g>
						<g>
							<radialGradient id="SVGID_91_" cx="324.3399" cy="156.6032" r="269.0377" gradientUnits="userSpaceOnUse">
								<stop  offset="0" style="stop-color:#B3B3B3"/>
								<stop  offset="0.5054" style="stop-color:#E6E6E6"/>
								<stop  offset="1" style="stop-color:#808080"/>
							</radialGradient>
							<path class="st90" d="M751.9,167.3c-0.1,0-0.1,0-0.2,0l-69-27.5c-0.1-0.1-0.3-0.2-0.3-0.3c0-0.2,0-0.3,0.1-0.4l55-63.3
								c0.1-0.1,0.3-0.2,0.5-0.1c0.2,0.1,0.3,0.2,0.3,0.4l14.1,90.9c0,0.2,0,0.3-0.2,0.5C752.2,167.3,752.1,167.3,751.9,167.3z
								 M683.7,139.1l67.6,27l-13.8-89L683.7,139.1z"/>
						</g>
						<g>
							<radialGradient id="SVGID_92_" cx="324.3401" cy="156.6031" r="269.0363" gradientUnits="userSpaceOnUse">
								<stop  offset="0" style="stop-color:#B3B3B3"/>
								<stop  offset="0.5054" style="stop-color:#E6E6E6"/>
								<stop  offset="1" style="stop-color:#808080"/>
							</radialGradient>
							<path class="st91" d="M629.7,199.4C629.7,199.4,629.6,199.4,629.7,199.4c-0.2,0-0.3-0.1-0.4-0.2l-28.3-49
								c-0.1-0.1-0.1-0.3,0-0.5c0.1-0.1,0.2-0.2,0.4-0.3l81.5-10.6c0.2,0,0.4,0.1,0.5,0.3c0.1,0.2,0.1,0.4-0.1,0.5L630,199.2
								C629.9,199.3,629.8,199.4,629.7,199.4z M602.2,150.3l27.6,47.8l51.9-58.1L602.2,150.3z"/>
						</g>
					</g>
				</g>
				<g>
					<g>
						<g>
							<radialGradient id="SVGID_93_" cx="324.34" cy="156.6032" r="269.0372" gradientUnits="userSpaceOnUse">
								<stop  offset="0" style="stop-color:#B3B3B3"/>
								<stop  offset="0.5054" style="stop-color:#E6E6E6"/>
								<stop  offset="1" style="stop-color:#808080"/>
							</radialGradient>
							<path class="st92" d="M375.1,248.1c-0.2,0-0.4-0.1-0.5-0.3c-0.1-0.2,0-0.5,0.2-0.6l49.5-28.6c0.2-0.1,0.4-0.1,0.6,0.1
								l15.1,16c0.1,0.1,0.2,0.3,0.1,0.5c-0.1,0.2-0.2,0.3-0.4,0.3L375.1,248.1C375.2,248.1,375.1,248.1,375.1,248.1z M424.5,219.7
								l-46.6,26.9l60.9-11.9L424.5,219.7z"/>
						</g>
						<g>
							<radialGradient id="SVGID_94_" cx="324.3399" cy="156.6031" r="269.0375" gradientUnits="userSpaceOnUse">
								<stop  offset="0" style="stop-color:#B3B3B3"/>
								<stop  offset="0.5054" style="stop-color:#E6E6E6"/>
								<stop  offset="1" style="stop-color:#808080"/>
							</radialGradient>
							<path class="st93" d="M424.6,219.5c-0.1,0-0.2,0-0.3-0.1l-74-60.7c-0.2-0.1-0.2-0.3-0.2-0.5c0.1-0.2,0.2-0.3,0.4-0.3
								l81.1-8.7c0.2,0,0.3,0,0.4,0.1c0.1,0.1,0.2,0.2,0.1,0.4l-7.1,69.4c0,0.2-0.1,0.3-0.3,0.4
								C424.7,219.5,424.7,219.5,424.6,219.5z M351.8,158.8l72.4,59.4l6.9-67.9L351.8,158.8z"/>
						</g>
					</g>
					<g>
						<g>
							<radialGradient id="SVGID_95_" cx="324.3398" cy="156.603" r="269.0376" gradientUnits="userSpaceOnUse">
								<stop  offset="0" style="stop-color:#B3B3B3"/>
								<stop  offset="0.5054" style="stop-color:#E6E6E6"/>
								<stop  offset="1" style="stop-color:#808080"/>
							</radialGradient>
							<path class="st94" d="M439.7,235.5c-0.1,0-0.3-0.1-0.4-0.2l-15.1-16c-0.1-0.1-0.2-0.3-0.1-0.4c0-0.2,0.2-0.3,0.3-0.3
								l57.6-20.1c0.2-0.1,0.5,0,0.6,0.2c0.1,0.2,0.1,0.5-0.1,0.6L440,235.4C439.9,235.5,439.8,235.5,439.7,235.5z M425.5,219.3
								l14.2,15.1l40.2-34.1L425.5,219.3z"/>
						</g>
						<g>
							<radialGradient id="SVGID_96_" cx="324.34" cy="156.6031" r="269.0378" gradientUnits="userSpaceOnUse">
								<stop  offset="0" style="stop-color:#B3B3B3"/>
								<stop  offset="0.5054" style="stop-color:#E6E6E6"/>
								<stop  offset="1" style="stop-color:#808080"/>
							</radialGradient>
							<path class="st95" d="M424.6,219.5c0,0-0.1,0-0.1,0l-77.8-20.4c-0.2-0.1-0.4-0.3-0.4-0.5l3.8-40.3c0-0.2,0.1-0.3,0.3-0.4
								c0.2-0.1,0.4,0,0.5,0.1l74,60.7c0.2,0.1,0.2,0.4,0.1,0.6C424.9,219.4,424.8,219.5,424.6,219.5z M347.4,198.3l75.2,19.7
								L351,159.3L347.4,198.3z"/>
						</g>
					</g>
					<g>
						<g>
							<radialGradient id="SVGID_97_" cx="324.3401" cy="156.6032" r="269.038" gradientUnits="userSpaceOnUse">
								<stop  offset="0" style="stop-color:#B3B3B3"/>
								<stop  offset="0.5054" style="stop-color:#E6E6E6"/>
								<stop  offset="1" style="stop-color:#808080"/>
							</radialGradient>
							<path class="st96" d="M424.6,219.5c-0.1,0-0.2,0-0.3-0.1c-0.1-0.1-0.2-0.3-0.2-0.4l7.1-69.4c0-0.2,0.1-0.3,0.3-0.4
								c0.2-0.1,0.4,0,0.5,0.1l50.6,49.3c0.1,0.1,0.2,0.3,0.1,0.5c0,0.2-0.2,0.3-0.3,0.4l-57.6,20.1
								C424.7,219.5,424.6,219.5,424.6,219.5z M432,150.7l-6.9,67.6l56.2-19.6L432,150.7z"/>
						</g>
						<g>
							<radialGradient id="SVGID_98_" cx="324.3399" cy="156.6034" r="269.0374" gradientUnits="userSpaceOnUse">
								<stop  offset="0" style="stop-color:#B3B3B3"/>
								<stop  offset="0.5054" style="stop-color:#E6E6E6"/>
								<stop  offset="1" style="stop-color:#808080"/>
							</radialGradient>
							<path class="st97" d="M375.1,248.1c0,0-0.1,0-0.1,0c-0.1,0-0.2-0.1-0.3-0.2l-28.3-49c-0.1-0.2-0.1-0.4,0-0.5
								c0.1-0.2,0.3-0.2,0.5-0.2l77.8,20.4c0.2,0,0.3,0.2,0.4,0.4c0,0.2-0.1,0.4-0.2,0.5l-49.5,28.6
								C375.3,248.1,375.2,248.1,375.1,248.1z M347.8,199.4l27.5,47.6l48-27.7L347.8,199.4z"/>
						</g>
					</g>
				</g>
			</g>
			
				<ellipse transform="matrix(0.1911 -0.9816 0.9816 0.1911 57.51 596.3588)" class="st1" cx="390.6" cy="263.3" rx="3.4" ry="3.4"/>
			
				<ellipse transform="matrix(0.1911 -0.9816 0.9816 0.1911 -92.0046 543.7835)" class="st1" cx="283.9" cy="327.7" rx="3.4" ry="3.4"/>
			
				<ellipse transform="matrix(0.1911 -0.9816 0.9816 0.1911 60.8508 567.7521)" class="st1" cx="374.9" cy="247" rx="1.9" ry="1.9"/>
			
				<ellipse transform="matrix(0.1911 -0.9816 0.9816 0.1911 129.3565 593.1678)" class="st1" cx="424.6" cy="218.1" rx="1.9" ry="1.9"/>
			
				<ellipse transform="matrix(0.1911 -0.9816 0.9816 0.1911 195.7242 633.473)" class="st1" cx="482.2" cy="198" rx="2.8" ry="2.8"/>
			
				<ellipse transform="matrix(0.1911 -0.9816 0.9816 0.1911 236.9682 692.7755)" class="st1" cx="538.8" cy="202.6" rx="2.4" ry="2.4"/>
			
				<ellipse transform="matrix(0.1911 -0.9816 0.9816 0.1911 241.6555 737.3638)" class="st1" cx="568.2" cy="222.1" rx="2.4" ry="2.4"/>
			
				<ellipse transform="matrix(0.1911 -0.9816 0.9816 0.1911 391.3359 860.0092)" class="st1" cx="717.5" cy="192.6" rx="3.6" ry="3.6"/>
			
				<ellipse transform="matrix(0.1911 -0.9816 0.9816 0.1911 313.9296 779.3425)" class="st1" cx="629.8" cy="199.2" rx="2.7" ry="2.7"/>
			
				<ellipse transform="matrix(0.1912 -0.9816 0.9816 0.1912 276.5889 866.8521)" class="st1" cx="664.3" cy="265.6" rx="2.3" ry="2.3"/>
			
				<ellipse transform="matrix(0.1911 -0.9816 0.9816 0.1911 220.8615 985.6111)" class="st1" cx="708.5" cy="358.8" rx="2.3" ry="2.3"/>
			
				<ellipse transform="matrix(0.1911 -0.9816 0.9816 0.1911 415.2806 781.7725)" class="st1" cx="682" cy="138.9" rx="2.3" ry="2.3"/>
			
				<ellipse transform="matrix(0.1911 -0.9816 0.9816 0.1911 424.8399 717.0148)" class="st1" cx="647.5" cy="100.7" rx="2.3" ry="2.3"/>
			
				<ellipse transform="matrix(0.1911 -0.9816 0.9816 0.1911 81.8397 690.5908)" class="st1" cx="459.9" cy="295.6" rx="2.6" ry="2.6"/>
			
				<ellipse transform="matrix(0.1911 -0.9816 0.9816 0.1911 106.1799 396.9484)" class="st1" cx="293.9" cy="134" rx="4.1" ry="4.1"/>
			
				<ellipse transform="matrix(0.1911 -0.9816 0.9816 0.1911 40.5589 444.6582)" class="st1" cx="290.1" cy="197.7" rx="2.6" ry="2.6"/>
			
				<ellipse transform="matrix(0.1911 -0.9816 0.9816 0.1911 -51.974 333.8213)" class="st1" cx="176.6" cy="198.4" rx="3.2" ry="3.2"/>
			
				<ellipse transform="matrix(0.1911 -0.9816 0.9816 0.1911 -72.3782 211.3833)" class="st1" cx="92.1" cy="149.6" rx="3.2" ry="3.2"/>
			
				<ellipse transform="matrix(0.1911 -0.9816 0.9816 0.1911 -107.162 286.0978)" class="st1" cx="120" cy="208.1" rx="2.3" ry="2.3"/>
			
				<ellipse transform="matrix(0.1911 -0.9816 0.9816 0.1911 -162.1091 340.5069)" class="st1" cx="125.5" cy="268.6" rx="2.3" ry="2.3"/>
			
				<ellipse transform="matrix(0.1911 -0.9816 0.9816 0.1911 -138.7115 387.7959)" class="st1" cx="165.9" cy="278.1" rx="3.8" ry="3.8"/>
			
				<ellipse transform="matrix(0.1911 -0.9816 0.9816 0.1911 -49.3934 459.7372)" class="st1" cx="254.2" cy="259.8" rx="2.4" ry="2.4"/>
			<polygon class="st98" points="102,328.7 -0.2,314.5 -9.9,357.7 5.4,404.1 			"/>
			
				<ellipse transform="matrix(0.3448 -0.9387 0.9387 0.3448 41.3249 455.1529)" class="st1" cx="346.7" cy="198" rx="1.7" ry="1.7"/>
			
				<ellipse transform="matrix(0.3448 -0.9387 0.9387 0.3448 7.4363 463.6828)" class="st1" cx="335.9" cy="226.5" rx="1.7" ry="1.7"/>
			<g>
				<g>
					<path class="st1" d="M290.2,297.3c1.9,0,1.9-2.9,0-2.9C288.3,294.4,288.3,297.3,290.2,297.3L290.2,297.3z"/>
				</g>
			</g>
			<g>
				<g>
					<path class="st1" d="M223.5,363.6c1.9,0,1.9-2.9,0-2.9C221.6,360.7,221.6,363.6,223.5,363.6L223.5,363.6z"/>
				</g>
			</g>
			<g>
				<g>
					<path class="st1" d="M374.9,346.4c1.9,0,1.9-2.9,0-2.9C373,343.5,373,346.4,374.9,346.4L374.9,346.4z"/>
				</g>
			</g>
			<g>
				<g>
					<path class="st1" d="M344.7,353.6c3.7,0,3.7-5.8,0-5.8C340.9,347.8,340.9,353.6,344.7,353.6L344.7,353.6z"/>
				</g>
			</g>
			<g>
				<g>
					<path class="st1" d="M181.4,350c3.7,0,3.7-5.8,0-5.8C177.7,344.2,177.7,350,181.4,350L181.4,350z"/>
				</g>
			</g>
			<g>
				<g>
					<path class="st1" d="M101.8,332.1c3.7,0,3.7-5.8,0-5.8C98.1,326.3,98.1,332.1,101.8,332.1L101.8,332.1z"/>
				</g>
			</g>
			<g>
				<g>
					<path class="st1" d="M205.7,150.3c1.9,0,1.9-2.9,0-2.9C203.8,147.4,203.8,150.3,205.7,150.3L205.7,150.3z"/>
				</g>
			</g>
			<g>
				<g>
					<path class="st1" d="M56,280.9c4.9,0,4.9-7.6,0-7.6C51.1,273.3,51.1,280.9,56,280.9L56,280.9z"/>
				</g>
			</g>
			<g>
				<g>
					<path class="st1" d="M350.4,158.9c1.9,0,1.9-2.9,0-2.9C348.5,156,348.5,158.9,350.4,158.9L350.4,158.9z"/>
				</g>
			</g>
			<g>
				<g>
					<path class="st1" d="M205.5,269.7c1.9,0,1.9-2.9,0-2.9C203.7,266.8,203.7,269.7,205.5,269.7L205.5,269.7z"/>
				</g>
			</g>
			<g>
				<g>
					<path class="st1" d="M431.2,348.6c3.7,0,3.7-5.8,0-5.8C427.4,342.8,427.4,348.6,431.2,348.6L431.2,348.6z"/>
				</g>
			</g>
			<g>
				<g>
					<path class="st1" d="M502,350.7c3.7,0,3.7-5.8,0-5.8C498.3,344.9,498.3,350.7,502,350.7L502,350.7z"/>
				</g>
			</g>
			<g>
				<g>
					<path class="st1" d="M566.9,359.9c1.9,0,1.9-2.9,0-2.9C565.1,357,565,359.9,566.9,359.9L566.9,359.9z"/>
				</g>
			</g>
			<g>
				<g>
					<path class="st1" d="M599,301.5c3.7,0,3.7-5.8,0-5.8C595.2,295.7,595.2,301.5,599,301.5L599,301.5z"/>
				</g>
			</g>
			<g>
				<g>
					<path class="st1" d="M580.1,270.8c3.7,0,3.7-5.8,0-5.8C576.3,265,576.3,270.8,580.1,270.8L580.1,270.8z"/>
				</g>
			</g>
			<g>
				<g>
					<path class="st1" d="M532,265.6c3.7,0,3.7-5.8,0-5.8C528.3,259.8,528.3,265.6,532,265.6L532,265.6z"/>
				</g>
			</g>
			<g>
				<g>
					<path class="st1" d="M488.5,250.1c3.7,0,3.7-5.8,0-5.8C484.7,244.3,484.7,250.1,488.5,250.1L488.5,250.1z"/>
				</g>
			</g>
			<g>
				<g>
					<path class="st1" d="M466.1,137.9c3.7,0,3.7-5.8,0-5.8C462.3,132.1,462.3,137.9,466.1,137.9L466.1,137.9z"/>
				</g>
			</g>
			<g>
				<g>
					<path class="st1" d="M515.4,103.1c3.7,0,3.7-5.8,0-5.8C511.7,97.3,511.7,103.1,515.4,103.1L515.4,103.1z"/>
				</g>
			</g>
			<g>
				<g>
					<path class="st1" d="M459.8,102.6c3.7,0,3.7-5.8,0-5.8C456,96.8,456,102.6,459.8,102.6L459.8,102.6z"/>
				</g>
			</g>
			<g>
				<g>
					<path class="st1" d="M601.5,151.6c1.9,0,1.9-2.9,0-2.9C599.7,148.7,599.7,151.6,601.5,151.6L601.5,151.6z"/>
				</g>
			</g>
		</g>
		
			<ellipse transform="matrix(0.1911 -0.9816 0.9816 0.1911 -15.3948 770.8625)" class="st99" cx="460" cy="394.8" rx="2.7" ry="2.7"/>
		<g class="st0">
			<g>
				<path class="st1" d="M281.7,408.8c3.9,0,3.9-6,0-6C277.8,402.8,277.8,408.8,281.7,408.8L281.7,408.8z"/>
			</g>
		</g>
		
			<ellipse transform="matrix(0.1911 -0.9816 0.9816 0.1911 -106.9477 659.7548)" class="st99" cx="346.8" cy="394.8" rx="4.3" ry="4.3"/>
		<g class="st0">
			<g>
				<path class="st1" d="M120.8,397.6c3.9,0,3.9-6,0-6C116.9,391.6,116.9,397.6,120.8,397.6L120.8,397.6z"/>
			</g>
		</g>
	</g>
</g>
</svg>
