<?xml version="1.0" encoding="utf-8"?>
<!-- Generator: Adobe Illustrator 19.2.1, SVG Export Plug-In . SVG Version: 6.00 Build 0)  -->
<svg version="1.1" id="Layer_1" xmlns="http://www.w3.org/2000/svg" xmlns:xlink="http://www.w3.org/1999/xlink" x="0px" y="0px"
	 viewBox="0 0 1612 1792" style="enable-background:new 0 0 1612 1792;" xml:space="preserve" width='75' height='75' >

<path width='75' height='75' class="st0" d="M856.4,807.5l13-39.3l-25.2-8.4l-12.9,38.9l-19.4-6.5l12.9-38.9l-24.4-8.1l-12.7,38.1
	c-17.1-5.2-34.3-10.4-51.4-15.7l-9.1,27.4l20.6,6.8c0,0,10.7,6.1,6.9,17.5S719,926.8,719,926.8s0.5,11.2-9.4,7.9s-20.6-6.8-20.6-6.8
	l-15,27.2l50.3,16.7l-14.2,42.7l25.2,8.4l14.2-42.7l18.7,6.2l-14.2,42.7l26.7,8.9l14.2-42.7c2.3,1.1,40.1,19.1,72-1.8
	c14.9-9.7,21.8-23.5,24.6-30.5c1.5-4.7,3.5-13.3,1.5-23.6c-3.9-19.8-19.6-30.1-22.8-32c0,0,24.1-7.7,31.5-29.8
	C909,855.5,897.9,821.3,856.4,807.5z M839.8,940.8c-11.7,35.4-77.9,3.3-77.9,3.3l17.5-52.6C779.4,891.5,851.5,905.4,839.8,940.8z
	 M853.2,860.1c-10.2,30.9-65.5,6.2-65.5,6.2l16.7-50.3C804.4,816,863.5,829.2,853.2,860.1z"/>
</svg>
