<svg width='75' height='75' enable-background="new 0 0 612 612" version="1.1" viewBox="0 0 612 612" xml:space="preserve" xmlns="http://www.w3.org/2000/svg" fill='#022027'>
	<path d="m306.77 346.81h0.131c4.615 0 9.176-1.339 12.866-3.777l1.001-0.643c0.218-0.142 0.446-0.271 0.675-0.424l11.658-9.645 278.26-229.62c-0.576-0.795-1.557-1.339-2.602-1.339h-605.52c-0.751 0-1.448 0.272-2.003 0.729l291.12 239.95c3.669 3.038 8.904 4.769 14.413 4.769zm-306.77-212.92v340.37l208.55-168.47-208.55-171.9zm403.67 173.04l208.33 167.42v-339.32l-208.33 171.91zm-66.237 54.644c-8.305 6.814-19.168 10.57-30.576 10.57-11.451 0-22.304-3.734-30.587-10.516l-47.765-39.394-228.5 184.56v0.587c0 1.753 1.502 3.244 3.276 3.244h605.49c1.741 0 3.232-1.491 3.232-3.255v-0.544l-228.31-183.44-46.262 38.185z"/>
</svg>
