<?xml version="1.0" encoding="UTF-8"?>
<svg enable-background="new 0 0 313 100.2" version="1.1" viewBox="0 0 313 100.2" xml:space="preserve" xmlns="http://www.w3.org/2000/svg" xmlns:xlink="http://www.w3.org/1999/xlink">
<style type="text/css">
	.st0{clip-path:url(#a);fill:#F7F7F7;}
</style>
	<defs>
		<rect id="b" width="313" height="100.2"/>
	</defs>
	<clipPath id="a">
		<use xlink:href="#b"/>
	</clipPath>
	<path class="st0" d="m312.6 41.3c-3-6.2-11-6.9-11-6.9-0.2-0.3-0.5-0.5-0.7-0.8-0.9-1-1.9-1.9-2.8-2.7-4.5-3.8-8.1-4.2-8.1-4.2-8.9-2.4-20.4-0.7-20.4-0.7l-2.2-2.8-0.9 0.2 0.7 2.8s-2.4 0.3-7.2 1c-4.7 0.8-101.5 20.8-101.5 20.8s-75.6-22.4-84.1-25.2-13.4-6.5-15-8.1c-1.5-1.6-8.3-11-10.9-13.3-2.5-2.4-4.2-1-4.2-1s4.6 9.8 7.7 16.9 13.3 10.6 19.3 13.1c2.2 1 10.8 4.5 20.7 8.5-1 0.5-2.5 1.3-3 1.6-0.9 0.5-2.5 1.8-2.5 1.8v1.1s4.2 1.5 12.9-1.4c7.1 2.9 14.1 5.8 19.6 8-1.5 0.7-3.7 1.8-5.4 3.5l-0.1 1s2.7 0.8 12.9-1.5c1.6 0.6 2.4 1 2.4 1l-30.8 6.3c-0.5-0.6-1.1-1.2-1.2-1.2-0.3-0.2-0.8 0.1-0.8 0.1l0.3 1.5-8.2 1.7c-6.9-0.4-11.1-5.9-11.1-5.9l-27.8-32.2c-2.4-3.7-7.7-2-7.7-2l-8.4 1.8 10.1 47.7s-32-7.6-35-7.6-8.3 1.9-8.3 1.9l31.6 12.9c-2.9 1.4-5.3 3.6-5.3 3.6-0.6 1.1-0.5 2.3-0.2 3.1 0.3 0.7 0.9 1.3 1.7 1.4l32.4 4.4s4.3 2.8 5.2 2.7 6.6-1.4 6.6-1.4c41.7 5.2 78.3-4.9 78.3-4.9 4.3 0.8 13.7 1.3 17.8 0.9 1.9-0.2 10-1.5 19.1-3.2-1 0.5-1.9 1-2.1 1.3 0 0-0.1 0.7 0.1 1 0.1 0.3 4.7 0.5 14.8-2.4l3.9 2.5s-5.6 2.5-6.2 3.3l0.1 1.1s1.7 0.1 2.7 0.1c1-0.1 8.5-1.2 8.5-1.2l4 2.2s-4.6 2.3-5.1 2.7l-0.5 0.4 0.1 1.1s5.1 0.3 11.3-1.6c0 0 1.7 2.5 6.3 2.7 0 0 0.8 1.2 1.7 1.4 0.9 0.3 12.1 0.7 26.6-3.6 0 0 7.7-1.2 5.3-13.1s-7.1-10.7-18.7-8.4c0 0-1.2-0.6-3.3-0.1s-10.3 2.2-10.3 2.2l-0.6-1.6c4.5-2.1 7.4-3.9 7.4-3.9 9.5-1.6 52.3-11.1 52.3-11.1 16.5-5.2 30.1-13 27.2-19.3m-29.2-7.8c-1.7 0.1-3.5 0.2-4.1 0.3-0.1 0-0.2-0.1-0.2-0.2 0.2-0.6 0.8-2.2 1-2.6 0.3-0.4 1.4-1 1.6-1.1h0.1c0.2 0 1.7-0.2 3.3-0.3 0.1 0 0.2 0.1 0.2 0.2l-1.7 3.6c-0.1 0-0.1 0.1-0.2 0.1m8-1.1c-1.9 0.3-3.6 0.8-5.1 0.9-0.3 0-0.9 0.1-1.6 0.1-0.1 0-0.2-0.1-0.2-0.2l1.6-3.6c0-0.1 0.1-0.1 0.1-0.1h1.2c0.7 0 1.3 0 2 0.1 0.1 0 0.1 0 0.1 0.1l2 2.9c0.1-0.2 0-0.2-0.1-0.2m8.4 1.3c-0.8 0.2-2.5-0.4-4-0.8-1.1-0.2-2-0.4-3.1-0.5-0.1 0-0.1 0-0.1-0.1l-1.9-2.8c0.7 0.1 1.4 0.2 2 0.3 1.4 0.3 3 0.6 3.8 0.8 0.2 0.1 0.4 0.1 0.8 0.2h0.1c0.8 0.7 2.1 1.7 3 2.7-0.3 0.1-0.4 0.2-0.6 0.2"/>
</svg>
