<svg enable-background="new 0 0 410.6 352.4" version="1.1" viewBox="0 0 410.6 352.4" xml:space="preserve" xmlns="http://www.w3.org/2000/svg" xmlns:xlink="http://www.w3.org/1999/xlink">
<style type="text/css">
	.st0{fill:#0D0F0F;}
	.st1{fill:#FFFFFF;}
	.st2{fill:#161A1C;}
	.st3{fill:#FFFFFF;stroke:#000000;stroke-miterlimit:10;}
	.st4{clip-path:url(#a);}
	.st5{clip-path:url(#SVGID_4_);fill:#FFFFFF;}
	.st6{clip-path:url(#SVGID_6_);fill:#FFFFFF;}
</style>
			<defs>
				<rect id="b" x="16.5" y="92" width="380.9" height="184"/>
			</defs>

			<path d="m396.7 176.2c-1-1.7-2.8-2.7-4.8-2.7h-73.3c-2 0-3.9 1.1-4.9 2.8l-13.9 24.3h-6.4v-55.4c0-3.1-2.5-5.6-5.6-5.6h-93v-13.4c0-3.1-2.5-5.6-5.6-5.6h-16.6v-23c0-3.1-2.5-5.6-5.6-5.6h-29.2c-3.1 0-5.6 2.5-5.6 5.6v23h-41.5c-3.1 0-5.6 2.5-5.6 5.6v74.4h-9.2l-3.5-6.3c-1-1.8-2.9-2.9-4.9-2.9h-45.4c-1.9 0-3.7 1-4.7 2.6s-1.1 3.7-0.3 5.4l34.4 72.7c0.9 2 2.9 3.2 5.1 3.2h285.6c2 0 3.9-1.1 4.9-2.9l49.8-90.7c0.9-1.7 0.8-3.8-0.2-5.5zm-114.5-25.4v49.8h-87.4v-49.8h87.4zm-185.9-19h87.4v68.8h-87.4v-68.8zm-12.9 97.5c-4 0-7.3-3.3-7.3-7.3s3.3-7.3 7.3-7.3 7.3 3.3 7.3 7.3-3.3 7.3-7.3 7.3zm40.9 0c-4 0-7.3-3.3-7.3-7.3s3.3-7.3 7.3-7.3 7.3 3.3 7.3 7.3-3.3 7.3-7.3 7.3zm40.9 0c-4 0-7.3-3.3-7.3-7.3s3.3-7.3 7.3-7.3 7.3 3.3 7.3 7.3c-0.1 4-3.3 7.3-7.3 7.3zm40.9 0c-4 0-7.3-3.3-7.3-7.3s3.3-7.3 7.3-7.3 7.3 3.3 7.3 7.3c-0.1 4-3.3 7.3-7.3 7.3zm40.8 0c-4 0-7.3-3.3-7.3-7.3s3.3-7.3 7.3-7.3 7.3 3.3 7.3 7.3-3.2 7.3-7.3 7.3zm40.9 0c-4 0-7.3-3.3-7.3-7.3s3.3-7.3 7.3-7.3 7.3 3.3 7.3 7.3-3.3 7.3-7.3 7.3z" clip-path="url(#a)" fill="#fff"/>
		<path class="st1" d="m113.2 141.2h-1.6c-3.1 0-5.6 2.5-5.6 5.6v7.4c0 3.1 2.5 5.6 5.6 5.6h1.6c3.1 0 5.6-2.5 5.6-5.6v-7.4c0-3.1-2.5-5.6-5.6-5.6z"/>
		<path class="st1" d="m131.6 141.2h-1.6c-3.1 0-5.6 2.5-5.6 5.6v7.4c0 3.1 2.5 5.6 5.6 5.6h1.6c3.1 0 5.6-2.5 5.6-5.6v-7.4c0-3.1-2.5-5.6-5.6-5.6z"/>
		<path class="st1" d="m150 141.2h-1.6c-3.1 0-5.6 2.5-5.6 5.6v7.4c0 3.1 2.5 5.6 5.6 5.6h1.6c3.1 0 5.6-2.5 5.6-5.6v-7.4c0-3.1-2.5-5.6-5.6-5.6z"/>
		<path class="st1" d="m168.4 141.2h-1.6c-3.1 0-5.6 2.5-5.6 5.6v7.4c0 3.1 2.5 5.6 5.6 5.6h1.6c3.1 0 5.6-2.5 5.6-5.6v-7.4c0-3.1-2.5-5.6-5.6-5.6z"/>
		<path class="st1" d="m210.1 177.5h1.6c3.1 0 5.6-2.5 5.6-5.6v-7.4c0-3.1-2.5-5.6-5.6-5.6h-1.6c-3.1 0-5.6 2.5-5.6 5.6v7.4c0 3.1 2.5 5.6 5.6 5.6z"/>
		<path class="st1" d="m228.5 177.5h1.6c3.1 0 5.6-2.5 5.6-5.6v-7.4c0-3.1-2.5-5.6-5.6-5.6h-1.6c-3.1 0-5.6 2.5-5.6 5.6v7.4c0 3.1 2.5 5.6 5.6 5.6z"/>
		<path class="st1" d="m246.9 177.5h1.6c3.1 0 5.6-2.5 5.6-5.6v-7.4c0-3.1-2.5-5.6-5.6-5.6h-1.6c-3.1 0-5.6 2.5-5.6 5.6v7.4c0 3.1 2.5 5.6 5.6 5.6z"/>
		<path class="st1" d="m265.3 177.5h1.6c3.1 0 5.6-2.5 5.6-5.6v-7.4c0-3.1-2.5-5.6-5.6-5.6h-1.6c-3.1 0-5.6 2.5-5.6 5.6v7.4c0 3.1 2.5 5.6 5.6 5.6z"/>
</svg>
